<?xml version="1.0" encoding="UTF-8" standalone="no"?>
<!-- Created with Inkscape (http://www.inkscape.org/) -->

<svg
   xmlns:dc="http://purl.org/dc/elements/1.1/"
   xmlns:cc="http://creativecommons.org/ns#"
   xmlns:rdf="http://www.w3.org/1999/02/22-rdf-syntax-ns#"
   xmlns:svg="http://www.w3.org/2000/svg"
   xmlns="http://www.w3.org/2000/svg"
   xmlns:sodipodi="http://sodipodi.sourceforge.net/DTD/sodipodi-0.dtd"
   xmlns:inkscape="http://www.inkscape.org/namespaces/inkscape"
   width="660.22534"
   height="91.480362"
   id="svg2"
   version="1.1"
   inkscape:version="0.48.5 r10040"
   sodipodi:docname="arrow.svg">
  <defs
     id="defs4" />
  <sodipodi:namedview
     id="base"
     pagecolor="#ffffff"
     bordercolor="#666666"
     borderopacity="1.0"
     inkscape:pageopacity="0.0"
     inkscape:pageshadow="2"
     inkscape:zoom="1.4"
     inkscape:cx="221.42925"
     inkscape:cy="-6.7293931"
     inkscape:document-units="px"
     inkscape:current-layer="layer1"
     showgrid="false"
     inkscape:window-width="1858"
     inkscape:window-height="1057"
     inkscape:window-x="54"
     inkscape:window-y="-8"
     inkscape:window-maximized="1"
     fit-margin-top="0"
     fit-margin-left="0"
     fit-margin-right="0"
     fit-margin-bottom="0" />
  <metadata
     id="metadata7">
    <rdf:RDF>
      <cc:Work
         rdf:about="">
        <dc:format>image/svg+xml</dc:format>
        <dc:type
           rdf:resource="http://purl.org/dc/dcmitype/StillImage" />
        <dc:title />
      </cc:Work>
    </rdf:RDF>
  </metadata>
  <g
     inkscape:label="Layer 1"
     inkscape:groupmode="layer"
     id="layer1"
     transform="translate(-53.375061,-49.930391)">
    <text
       xml:space="preserve"
       style="font-size:19.04966545px;font-style:normal;font-weight:normal;line-height:125%;letter-spacing:0px;word-spacing:0px;fill:#000000;fill-opacity:1;stroke:none;font-family:Sans"
       x="73.458611"
       y="136.65123"
       id="text3021"
       sodipodi:linespacing="125%"><tspan
         sodipodi:role="line"
         id="tspan3023"
         x="73.458611"
         y="136.65123">Nie ma znaczenia</tspan></text>
    <text
       xml:space="preserve"
       style="font-size:19.04966545px;font-style:normal;font-weight:normal;line-height:125%;letter-spacing:0px;word-spacing:0px;fill:#000000;fill-opacity:1;stroke:none;font-family:Sans"
       x="293.35678"
       y="137.40176"
       id="text3025"
       sodipodi:linespacing="125%"><tspan
         sodipodi:role="line"
         id="tspan3027"
         x="293.35678"
         y="137.40176">Obojętne znaczenie</tspan></text>
    <text
       xml:space="preserve"
       style="font-size:19.04966545px;font-style:normal;font-weight:normal;line-height:125%;letter-spacing:0px;word-spacing:0px;fill:#000000;fill-opacity:1;stroke:none;font-family:Sans"
       x="502.47281"
       y="137.60771"
       id="text3029"
       sodipodi:linespacing="125%"><tspan
         sodipodi:role="line"
         id="tspan3031"
         x="502.47281"
         y="137.60771">Bardzo ważne znaczenie</tspan></text>
    <path
       id="path2995"
       d="m 23.952114,42.070704 c 7.72476,0.51932 15.474319,0.548478 23.213181,0.633181 14.976323,0.129255 29.953396,0.132403 44.930168,0.13576 16.186197,-6.24e-4 32.372387,0.0024 48.558577,-0.0044 14.90686,-0.0095 29.81372,-0.01178 44.72058,-0.02463 13.04994,-0.01526 26.09989,-0.01162 39.14984,-0.0087 13.00047,0.0037 26.00095,-4.54e-4 39.00142,-0.0068 11.63749,-0.0018 23.27498,-0.01113 34.91246,-0.01844 9.7188,-0.0052 19.43759,-0.01526 29.15638,-0.02011 8.66343,-0.0076 17.32685,-0.0043 25.99027,-0.0017 9.06643,8.91e-4 18.13286,0.0051 27.19929,0.0028 7.8694,-0.0086 15.73879,-0.01737 23.60818,-0.01977 6.38633,-0.0089 12.77267,-0.01434 19.15901,-0.01188 6.80763,0.004 13.61527,0.01059 20.42291,0.0093 6.6672,-0.0048 13.33441,-0.0021 20.00161,-0.0074 5.99987,-0.0071 11.99975,-0.0042 17.99963,-0.0042 5.76518,-0.0037 11.53036,-9.65e-4 17.29554,-0.004 5.08363,-0.0039 10.16727,-0.01109 15.2509,-0.0066 6.2479,0.0021 12.49577,0.02017 18.74367,0.02626 8.20743,0.01689 16.41488,0.01069 24.62232,0.0056 6.75741,-0.0084 13.51482,-0.01179 20.27222,-0.02306 4.20671,-0.01077 8.41342,-0.02115 12.62014,-0.02634 3.65104,9.11e-4 7.30207,0.0053 10.9531,0.0024 3.10027,-6.16e-4 6.20052,-0.008 9.30079,-0.01039 2.44541,-0.001 4.89082,-0.0049 7.33624,-0.0035 2.00696,-0.0029 4.01392,-0.0049 6.02089,-0.0057 2.00473,0.0081 4.00871,-0.05678 6.00766,0.108187 2.71096,0.158237 5.38332,0.638493 8.0719,0.991895 1.70381,0.226774 3.42112,0.296261 5.1378,0.324566 1.45455,0.01474 2.90918,0.0052 4.36377,0.0059 1.10412,-7.96e-4 0.5514,-2.51e-4 1.65815,-0.0016 0,0 -4.57239,3.323017 -4.57239,3.323017 l 0,0 c -1.1075,0.0017 -0.5541,5.74e-4 -1.66021,0.0034 -1.45818,0.006 -2.91656,0.01153 -4.37459,-0.0143 -1.72239,-0.04527 -3.44369,-0.145753 -5.15032,-0.394757 -2.67454,-0.377708 -5.34044,-0.832737 -8.04298,-0.965583 -2.00053,-0.105312 -4.00284,-0.05003 -6.00568,-0.06269 -2.00178,-7.39e-4 -4.00356,-0.0027 -6.00534,-0.0057 -2.44218,0.0014 -4.88435,-0.0025 -7.32653,-0.0035 -3.09072,-0.0024 -6.18144,-0.0098 -9.27217,-0.01039 -3.65321,-0.0029 -7.30642,0.0015 -10.95964,0.0024 -4.18255,-0.0052 -8.36509,-0.01555 -12.54764,-0.02634 -6.73624,-0.01129 -13.47248,-0.01461 -20.20872,-0.02306 -8.2126,-0.0051 -16.4252,-0.01125 -24.63779,0.0056 -6.27199,0.0061 -12.54396,0.02411 -18.81596,0.02626 -5.07762,0.0045 -10.15524,-0.0026 -15.23286,-0.0066 -5.76152,-0.003 -11.52304,-2.91e-4 -17.28455,-0.004 -5.99599,-3e-6 -11.99198,0.0029 -17.98797,-0.0042 -6.66044,-0.0052 -13.3209,-0.0025 -19.98135,-0.0074 -6.81616,-0.0013 -13.63231,0.0053 -20.44847,0.0093 -6.37544,0.0024 -12.75088,-0.003 -19.12631,-0.01188 -7.85125,-0.0024 -15.70251,-0.01112 -23.55376,-0.01977 -9.06904,-0.0023 -18.13807,0.002 -27.20711,0.0028 -8.66187,0.0026 -17.32375,0.0059 -25.98563,-0.0017 -9.70034,-0.0049 -19.40068,-0.0149 -29.10102,-0.02011 -11.62056,-0.0073 -23.24113,-0.01666 -34.86169,-0.01844 -12.99422,-0.0064 -25.98845,-0.01056 -38.98267,-0.0068 -13.04197,0.0029 -26.08394,0.0065 -39.1259,-0.0086 -14.88565,-0.01256 -29.77129,-0.01437 -44.65694,-0.02156 -16.18519,-0.0041 -32.37037,0.0042 -48.555559,0.002 -15.025733,-0.0032 -30.051524,0.01175 -45.077205,-0.03445 -7.842568,-0.04995 -15.69142,-0.05694 -23.5256,-0.463785 0,0 4.595958,-3.275912 4.595958,-3.275912 z"
       inkscape:connector-curvature="0"
       transform="translate(53.375061,49.930391)" />
    <path
       id="path2997"
       d="m 645.38503,44.245183 c -2.78533,-0.740083 -5.46022,-1.832402 -8.06968,-3.043909 -1.87398,-1.015615 -3.44597,-2.474564 -5.14161,-3.745262 -1.61682,-1.180118 -3.33644,-2.198562 -4.95045,-3.385418 -1.72284,-1.370618 -3.28599,-2.892961 -4.76255,-4.520844 -1.00009,-1.492815 -2.42127,-2.575748 -3.7034,-3.799481 -1.21253,-1.059633 -2.44107,-2.100353 -3.728,-3.067667 -0.74042,-0.431158 -0.38197,-0.200776 -1.07589,-0.690312 0,0 4.77948,-3.047211 4.77948,-3.047211 l 0,0 c 0.6889,0.471275 0.32805,0.23171 1.0841,0.71632 1.28228,1.001277 2.53943,2.034563 3.74671,3.126052 1.30016,1.225596 2.71301,2.334675 3.72015,3.8389 1.45051,1.599324 2.98708,3.095595 4.6899,4.429995 1.62874,1.172755 3.37215,2.169942 4.96873,3.387345 1.64764,1.266733 3.21149,2.672612 5.05598,3.65578 2.60049,1.198208 5.26163,2.28076 8.05051,2.960567 0,0 -4.66398,3.185145 -4.66398,3.185145 z"
       inkscape:connector-curvature="0"
       transform="translate(53.375061,49.930391)" />
    <path
       id="path3005"
       d="m 642.66654,44.456616 c -2.00605,1.153631 -4.0121,2.307262 -6.01814,3.460893 -0.51932,0.293259 -2.0776,1.172453 -1.55795,0.879775 0.94956,-0.53482 3.7962,-2.142889 2.8477,-1.606199 -3.92441,2.220534 -7.55508,4.307574 -11.6075,6.148068 -4.49173,2.113508 -8.99532,4.18574 -13.53784,6.186333 -3.19914,1.377953 -6.5097,2.511703 -9.85325,3.486643 -0.40904,0.135761 -0.81808,0.271523 -1.22712,0.407284 0,0 4.43946,-3.443145 4.43946,-3.443145 l 0,0 c 0.40891,-0.129431 0.81782,-0.258862 1.22673,-0.388293 3.31774,-0.992526 6.60536,-2.121192 9.77684,-3.515994 4.53466,-1.975148 9.00696,-4.075666 13.49147,-6.162193 0.81809,-0.380226 1.64349,-0.745091 2.45426,-1.140678 0.77332,-0.377314 2.83876,-1.846184 2.29712,-1.177594 -0.19447,0.240056 -15.16229,8.856832 4.03142,-2.302037 0.52473,-0.30507 2.10516,-1.209299 1.58368,-0.898706 -1.19967,0.714519 -2.41229,1.407067 -3.61844,2.110601 0,0 5.27156,-2.044758 5.27156,-2.044758 z"
       inkscape:connector-curvature="0"
       transform="translate(53.375061,49.930391)" />
  </g>
</svg>
