<?xml version="1.0" encoding="utf-8"?>
<!-- Generator: Adobe Illustrator 15.0.0, SVG Export Plug-In . SVG Version: 6.00 Build 0)  -->
<!DOCTYPE svg PUBLIC "-//W3C//DTD SVG 1.1//EN" "http://www.w3.org/Graphics/SVG/1.1/DTD/svg11.dtd">
<svg version="1.1"
	 id="svg2" xmlns:dc="http://purl.org/dc/elements/1.1/" xmlns:cc="http://web.resource.org/cc/" xmlns:rdf="http://www.w3.org/1999/02/22-rdf-syntax-ns#" xmlns:svg="http://www.w3.org/2000/svg" xmlns:sodipodi="http://sodipodi.sourceforge.net/DTD/sodipodi-0.dtd" xmlns:inkscape="http://www.inkscape.org/namespaces/inkscape" sodipodi:docname="foska_remake.svg" sodipodi:docbase="E:\Grafika, ilustracje\GIMPgrafika\InkscapeSVGs" inkscape:version="0.44" sodipodi:version="0.32"
	 xmlns="http://www.w3.org/2000/svg" xmlns:xlink="http://www.w3.org/1999/xlink" x="0px" y="0px" width="256.246px"
	 height="268.254px" viewBox="277.621 290.631 256.246 268.254" enable-background="new 277.621 290.631 256.246 268.254"
	 xml:space="preserve">
<sodipodi:namedview  id="base" guidetolerance="50" borderlayer="false" showgrid="true" showguides="true" inkscape:zoom="1" inkscape:cy="344.89023" inkscape:cx="328.73484" borderopacity="1.0" bordercolor="#666666" pagecolor="#ffffff" inkscape:grid-bbox="false" inkscape:window-y="-4" inkscape:window-x="-4" inkscape:window-height="717" inkscape:window-width="1024" inkscape:guide-points="true" inkscape:guide-bbox="true" inkscape:current-layer="layer7" inkscape:document-units="px" inkscape:pageshadow="2" inkscape:pageopacity="0.0">
	</sodipodi:namedview>
<g id="layer1" transform="translate(-89.05339,-244.9062)" inkscape:label="Warstwa 1" inkscape:groupmode="layer">
</g>
<g id="layer2" transform="translate(-89.05339,-244.9062)" inkscape:label="szkic" sodipodi:insensitive="true" inkscape:groupmode="layer" display="none">
</g>
<g id="layer3" transform="translate(-89.05339,-244.9062)" inkscape:label="szkic_inner" inkscape:groupmode="layer">
</g>
<g id="layer4" transform="translate(-89.05339,-244.9062)" inkscape:label="fos" inkscape:groupmode="layer" display="none">
</g>
<g id="layer5" transform="translate(-89.05339,-244.9062)" inkscape:label="dzoe" inkscape:groupmode="layer" display="none">
</g>
<g id="layer6" transform="translate(-89.05339,-244.9062)" inkscape:label="together1" inkscape:groupmode="layer">
</g>
<g id="layer7" transform="translate(-89.05339,-244.9062)" inkscape:label="together2" inkscape:groupmode="layer">

		<path id="path8141" sodipodi:nodetypes="ccsccssccscccscc" fill="#FFFFFF" stroke="#000000" stroke-width="1.0023" stroke-linecap="round" stroke-linejoin="round" d="
		M524.825,548.024c8.661,75.014,76.857,81.19,75.907,81.356c-0.011-0.005,0.328,0.145,0.324,0.141
		c0.278-0.021,4.618,2.034,3.262,11.483c-3.857,58.558-6.344,64.313-7.174,64.513c-30.783,3.794-44.704,13.659-49.926,18.284
		c-10.158,8.997-17.602,29.181-20.706,40.108c-2.478,8.72-5.247,12.132-5.651,13.274c-12.892-0.677-27.083-2.475-68.387-1.965
		c-0.582-0.84-3.039-37.469-29.19-58.198c-8.345-6.613-19.69-13.596-33.26-13.409l-2.878-3.404c0,0-0.313-1.739,1.134-60.296
		c-4.607-2.763,49.939,5.391,63.712-33.195c4.185-11.726,4.426-27.987,10.816-51.542
		C524.655,547.855,524.825,548.024,524.825,548.024z"/>
	<path id="path8356" d="M548.651,535.537l-105.971,2.234c-0.014,0.018,11.009,75.952-66.837,88.917
		c-12.572,59.107-8.844,93.962-7.995,94.302c81.365-1.721,59.328,70.552,68.548,82.316c114.244,2.713,111.763-6.73,112.255-9.074
		c-7.055-75.646,66.195-69.339,74.157-68.982v0.194c0-0.192,1.234-0.201-4.515-105.4
		C614.907,615.864,547.822,618.539,548.651,535.537z M524.712,548.047c8.621,75.013,75.822,81.189,74.877,81.356
		c-0.011-0.006-0.011-0.026-0.015-0.03c0.276-0.02,5.609,1.695,4.26,11.145c-3.84,58.559-6.314,64.314-7.14,64.513
		c-30.641,3.794-44.497,13.66-49.693,18.284c-10.11,8.998-17.52,29.181-20.609,40.108c-2.467,8.721-5.223,12.132-5.625,13.275
		c-12.832-0.678-26.956-2.475-68.067-1.966c-0.579-0.84-3.023-37.468-29.054-58.197c-8.305-6.614-19.598-13.596-33.104-13.409
		l-2.865-3.405c0,0-0.479-0.72,0.96-59.277c-4.585-2.764,49.875,4.372,63.583-34.214c4.165-11.727,4.573-27.309,10.935-50.863
		C524.712,548.047,524.712,548.047,524.712,548.047z M483.463,557.886c1.44,13.68,1.275,14.685,1.275,14.685
		c-1.517-0.675-28.52,9.279-25.379,32.999c1.587,11.984,8.55,23.989,27.688,27.839c1.453,0.292,0.471,2.935,0.735,4.395
		c-9.271,4.042-14.141,6.905-18.254,11.25c-20.287,21.426,3.178,31.448,3.614,36.748l-19.679-4.319
		c-0.075,4.516-0.385,8.845,2.64,15.839l34.318-1.92l1.2-12.239c-18.446-3.555-15.565-27.696-5.28-28.019l0.721,14.1l9.839-0.24
		l-0.539-17.159c14.229,3.094,16.81,17.823,4.379,28.679l-4.8,14.64l37.679-0.96l2.16-18.96l-15.359,8.64
		c-0.053-0.601-0.568-1.377-0.15-1.784c25.14-24.52-8.501-45.95-19.049-43.813c-0.141-2.039-0.758-2.796-0.27-6.09
		c1.313,0.64,10.698-1.43,19.664-7.83c11.672-8.332,18.063-37.973-16.994-55.438c-0.24-5.28-0.721-5.76-0.721-5.76
		C483.463,557.886,483.463,557.886,483.463,557.886z M502.273,589.175c0.339-0.012,0.765,0.067,1.305,0.271
		c0,0,9.169,12.048-0.675,27.658c0,0,0.003,2.891-4.409,0.346c0.091-0.378,0.739-4.276,2.369-26.64
		C501,590.915,500.805,589.227,502.273,589.175z M487.543,589.925c0.9,20.459,0.9,21.18,0.9,21.18
		c-0.631,1.578-1.312,2.22-1.98,2.175C482.628,613.022,479.166,590.014,487.543,589.925z M538.031,634.593
		c4.93,46.111,0.854,58.715,1.185,62.443c15.104-4.582,15.615-4.065,15.615-4.065c-1.776-10.921,1.767-16.221,1.859-16.124
		c6.354-5.009,12.185,0.478,12.225,0.51c2.02,10.386,1.713,11.335,1.575,11.385c16.412,3.556,16.754,4.725,16.754,4.725
		c3.733-57.867,3.555-58.873,3.555-58.873c-17.479,2.206-17.474,2.205-17.474,2.205c-1.019,20.024-1.53,21.374-1.53,21.374
		c-7.858,6.235-14.414-1.02-14.414-1.02c-3.903-21.043-3.99-21.044-3.99-21.044S553.305,636.12,538.031,634.593z M461.07,639.288
		c0,0,0.6-0.117-54.043,1.92c0,0-0.309-0.253-10.83,18.074c32.522-7.785,35.256-6.481,35.204-3.899
		c0.085,0,0.677-0.596-38.354,42.508c-0.062,1.16,10.098-1.876,49.648,0.57c0,0-0.241-0.244,5.189-16.875
		c0,0-0.473,0.006-16.425,0.346C431.46,681.932,430.862,682.052,461.07,639.288z M517.332,701.956l-75.012,2.204l30.719,21.045
		l-21.225,29.533l64.498,2.715l3.899-22.739l-27.839,7.8c-3.473,0.7-5.162,0.314-7.29-0.33c4.054-9.146,11.205-13.004,16.125-18.674
		l-16.29-5.265c-3.08-1.417,0.017-2.389,0.675-3.39l41.909,4.409C516.302,701.956,517.332,701.956,517.332,701.956z"/>
</g>
</svg>
