<?xml version="1.0" encoding="utf-8"?>
<!-- Generator: Adobe Illustrator 16.0.0, SVG Export Plug-In . SVG Version: 6.00 Build 0)  -->
<!DOCTYPE svg PUBLIC "-//W3C//DTD SVG 1.1//EN" "http://www.w3.org/Graphics/SVG/1.1/DTD/svg11.dtd">
<svg version="1.1" id="Layer_1" xmlns="http://www.w3.org/2000/svg" xmlns:xlink="http://www.w3.org/1999/xlink" x="0px" y="0px"
	 width="1131px" height="227px" viewBox="0 0 1131 227" enable-background="new 0 0 1131 227" xml:space="preserve">
<g>
	<path d="M1080.6,53.21l18,9l-18,9V53.21z M22.2,59.21H1083.6v6H22.2V59.21z"/>
	<line fill="none" stroke="#000000" stroke-width="6" stroke-miterlimit="10" x1="22.2" y1="46.61" x2="22.2" y2="79.61"/>
	<line fill="none" stroke="#000000" stroke-width="6" stroke-miterlimit="10" x1="237.6" y1="46.61" x2="237.6" y2="79.61"/>
	<line fill="none" stroke="#000000" stroke-width="6" stroke-miterlimit="10" x1="1045.8" y1="46.61" x2="1045.8" y2="79.61"/>
	<g>
		<defs>

				<rect id="SVGID_1_" x="3.515" y="147.548" transform="matrix(-0.7573 -0.6531 0.6531 -0.7573 57.0046 363.7149)" width="185.142" height="47.435"/>
		</defs>
		<clipPath id="SVGID_2_">
			<use xlink:href="#SVGID_1_"  overflow="visible"/>
		</clipPath>
		<path clip-path="url(#SVGID_2_)" d="M89.11,163.25l-1.56-1.35c-0.5-0.431-0.98-0.771-1.42-1c-0.44-0.23-0.86-0.37-1.25-0.42
			c-0.38-0.04-0.73,0-1.05,0.14c-0.32,0.13-0.6,0.35-0.87,0.649c-0.44,0.521-0.63,1.08-0.57,1.671c0.07,0.59,0.39,1.14,0.98,1.649
			c0.49,0.41,1.04,0.68,1.66,0.79c0.62,0.11,1.37,0.101,2.26-0.01L89.11,163.25z M87,169.38c-0.08,0.09-0.16,0.13-0.26,0.12
			c-0.1,0-0.21-0.04-0.33-0.11c-0.12-0.069-0.28-0.189-0.48-0.359c-0.2-0.16-0.34-0.311-0.44-0.431c-0.09-0.119-0.15-0.22-0.16-0.31
			c-0.01-0.09,0.02-0.18,0.1-0.271l0.86-1c-0.84,0.091-1.64,0.03-2.4-0.17c-0.76-0.199-1.44-0.56-2.04-1.08
			c-0.52-0.449-0.94-0.93-1.25-1.43c-0.3-0.51-0.5-1.02-0.57-1.53c-0.08-0.52-0.04-1.04,0.12-1.56c0.16-0.52,0.45-1.02,0.86-1.5
			c0.49-0.57,1.02-0.95,1.61-1.17c0.59-0.22,1.21-0.28,1.88-0.18c0.66,0.09,1.36,0.34,2.1,0.739c0.74,0.4,1.5,0.931,2.28,1.601
			l1.37,1.189l0.67-0.779c0.33-0.381,0.59-0.761,0.76-1.12c0.17-0.37,0.25-0.73,0.24-1.08c-0.01-0.351-0.12-0.7-0.32-1.05
			c-0.2-0.351-0.51-0.7-0.94-1.07c-0.45-0.39-0.9-0.68-1.35-0.89c-0.45-0.2-0.87-0.351-1.25-0.45c-0.38-0.11-0.71-0.181-0.98-0.23
			s-0.46-0.109-0.54-0.189c-0.06-0.051-0.1-0.11-0.12-0.181c-0.02-0.069-0.02-0.14,0-0.229c0.01-0.09,0.06-0.19,0.12-0.29
			c0.07-0.11,0.15-0.21,0.24-0.33c0.16-0.18,0.3-0.32,0.42-0.4c0.12-0.09,0.27-0.13,0.45-0.14c0.18-0.01,0.45,0.02,0.81,0.1
			c0.35,0.08,0.74,0.21,1.15,0.381c0.41,0.159,0.83,0.369,1.27,0.63c0.44,0.25,0.85,0.55,1.23,0.88c0.72,0.62,1.26,1.22,1.62,1.819
			c0.37,0.601,0.57,1.19,0.61,1.771s-0.08,1.17-0.34,1.75c-0.26,0.59-0.66,1.189-1.19,1.82L87,169.38z M76.19,160.03
			c-0.06,0.06-0.11,0.1-0.18,0.109c-0.06,0.021-0.14,0.011-0.23-0.01c-0.09-0.03-0.21-0.09-0.34-0.18c-0.13-0.08-0.28-0.2-0.46-0.36
			c-0.19-0.16-0.33-0.3-0.44-0.41c-0.1-0.12-0.17-0.22-0.22-0.31c-0.04-0.08-0.05-0.16-0.05-0.23c0.01-0.06,0.03-0.13,0.09-0.189
			l5.04-5.84c0.49-0.57,0.84-1.07,1.05-1.49c0.21-0.43,0.34-0.84,0.39-1.24c0.04-0.39-0.01-0.78-0.17-1.14
			c-0.15-0.37-0.41-0.7-0.76-1.01c-0.46-0.391-1.06-0.631-1.8-0.7c-0.74-0.07-1.63-0.011-2.67,0.189l-6.02,6.98
			c-0.05,0.06-0.11,0.09-0.17,0.109c-0.07,0.011-0.15,0.011-0.24-0.02c-0.09-0.03-0.2-0.09-0.33-0.17
			c-0.14-0.09-0.29-0.21-0.48-0.37c-0.18-0.16-0.32-0.29-0.42-0.41c-0.11-0.109-0.18-0.22-0.23-0.31c-0.04-0.09-0.06-0.17-0.05-0.23
			c0.01-0.06,0.04-0.12,0.09-0.18l8.61-9.99c0.05-0.05,0.1-0.09,0.16-0.12c0.06-0.02,0.14-0.02,0.23,0.01
			c0.1,0.021,0.2,0.07,0.31,0.15c0.12,0.08,0.26,0.19,0.43,0.34c0.16,0.141,0.29,0.26,0.39,0.36c0.1,0.11,0.16,0.2,0.19,0.29
			c0.03,0.08,0.04,0.149,0.03,0.22c-0.01,0.061-0.04,0.12-0.09,0.18l-1.14,1.32c1.11-0.14,2.06-0.12,2.88,0.07
			c0.81,0.189,1.5,0.53,2.06,1.02c0.67,0.57,1.13,1.17,1.39,1.79c0.26,0.61,0.37,1.23,0.33,1.851c-0.05,0.62-0.23,1.239-0.54,1.85
			c-0.32,0.61-0.78,1.271-1.39,1.98L76.19,160.03z M75.95,136.54c-0.37,0.43-0.7,0.65-1,0.67c-0.3,0.01-0.66-0.17-1.1-0.55
			c-0.43-0.37-0.65-0.69-0.68-0.98c-0.02-0.29,0.15-0.64,0.51-1.06c0.37-0.43,0.7-0.65,0.99-0.67c0.3-0.021,0.66,0.16,1.1,0.54
			c0.43,0.37,0.66,0.7,0.69,0.99C76.48,135.76,76.31,136.12,75.95,136.54z M63.838,150.16c-0.637,0.74-1.208,1.29-1.711,1.649
			c-0.503,0.351-1.007,0.591-1.512,0.69c-0.504,0.11-1.01,0.08-1.517-0.08c-0.507-0.16-1.023-0.46-1.548-0.92
			c-0.236-0.2-0.425-0.39-0.566-0.56c-0.141-0.171-0.24-0.32-0.297-0.431c-0.056-0.109-0.081-0.21-0.073-0.29
			c0.009-0.069,0.032-0.149,0.072-0.22c0.039-0.08,0.086-0.15,0.139-0.22c0.054-0.07,0.122-0.16,0.205-0.25
			c0.115-0.13,0.22-0.24,0.314-0.33c0.094-0.09,0.179-0.15,0.256-0.19c0.077-0.029,0.143-0.05,0.199-0.05
			c0.055,0.01,0.109,0.03,0.161,0.07c0.044,0.04,0.123,0.13,0.237,0.26c0.113,0.13,0.255,0.26,0.425,0.41
			c0.244,0.21,0.485,0.359,0.722,0.43c0.238,0.08,0.484,0.08,0.738,0.01c0.255-0.069,0.523-0.22,0.804-0.439
			c0.281-0.22,0.655-0.601,1.12-1.141l8.984-10.42c0.04-0.05,0.1-0.08,0.17-0.1c0.07-0.021,0.15-0.021,0.24,0.01
			c0.1,0.04,0.21,0.09,0.34,0.181c0.14,0.09,0.29,0.21,0.47,0.359c0.17,0.16,0.32,0.29,0.42,0.41c0.11,0.11,0.18,0.22,0.23,0.31
			c0.04,0.091,0.06,0.171,0.05,0.24c-0.01,0.07-0.03,0.13-0.08,0.181L63.838,150.16z M61.963,139.08
			c0.466-0.54,0.856-1.09,1.169-1.66c0.314-0.57,0.512-1.13,0.593-1.689c0.081-0.57,0.015-1.12-0.199-1.671
			c-0.214-0.56-0.615-1.09-1.205-1.59c-0.545-0.47-1.096-0.779-1.653-0.93c-0.558-0.14-1.115-0.15-1.672-0.021
			c-0.556,0.131-1.103,0.391-1.641,0.761c-0.538,0.38-1.052,0.85-1.543,1.42c-0.472,0.55-0.865,1.1-1.179,1.67
			s-0.508,1.13-0.582,1.689c-0.074,0.57-0.005,1.12,0.209,1.671c0.214,0.56,0.615,1.09,1.205,1.59c0.537,0.47,1.086,0.77,1.648,0.92
			c0.561,0.149,1.118,0.16,1.672,0.029c0.553-0.13,1.097-0.38,1.631-0.76C60.95,140.14,61.466,139.66,61.963,139.08z M63.965,140.6
			c-0.701,0.811-1.454,1.471-2.259,1.96c-0.804,0.5-1.633,0.82-2.485,0.95c-0.853,0.12-1.718,0.05-2.597-0.22
			c-0.879-0.28-1.74-0.78-2.583-1.5c-0.821-0.71-1.431-1.45-1.831-2.22c-0.399-0.771-0.602-1.57-0.607-2.38
			c-0.005-0.82,0.18-1.65,0.554-2.48c0.375-0.84,0.925-1.68,1.653-2.53c0.701-0.81,1.452-1.47,2.253-1.97s1.627-0.82,2.48-0.95
			c0.852-0.12,1.715-0.05,2.587,0.221c0.872,0.279,1.733,0.779,2.583,1.52c0.821,0.7,1.431,1.44,1.831,2.21
			c0.4,0.771,0.602,1.57,0.607,2.38c0.005,0.82-0.178,1.65-0.549,2.49C65.232,138.92,64.686,139.76,63.965,140.6z M44.237,132.23
			c-0.119,0.079-0.235,0.119-0.348,0.13c-0.114,0.01-0.236-0.011-0.369-0.061c-0.132-0.06-0.28-0.149-0.444-0.26
			c-0.165-0.12-0.358-0.271-0.58-0.46c-0.229-0.2-0.417-0.38-0.563-0.53c-0.146-0.149-0.257-0.29-0.332-0.41
			c-0.074-0.12-0.111-0.239-0.108-0.34c0.002-0.109,0.033-0.229,0.093-0.359l6.341-13.431l-0.023-0.02l-12.12,8.45
			c-0.111,0.079-0.22,0.13-0.326,0.149c-0.106,0.021-0.221,0-0.346-0.05s-0.269-0.13-0.434-0.24c-0.164-0.12-0.365-0.28-0.601-0.479
			c-0.244-0.21-0.441-0.4-0.591-0.551c-0.15-0.159-0.263-0.3-0.337-0.42c-0.075-0.119-0.113-0.239-0.115-0.35
			c-0.001-0.11,0.032-0.23,0.099-0.35l7.639-16.53c0.102-0.2,0.193-0.36,0.272-0.46c0.079-0.101,0.173-0.15,0.28-0.141
			c0.108,0,0.238,0.051,0.391,0.16c0.154,0.11,0.349,0.261,0.585,0.471c0.229,0.189,0.406,0.359,0.529,0.479
			c0.124,0.13,0.208,0.23,0.253,0.33c0.045,0.09,0.058,0.17,0.039,0.24c-0.019,0.08-0.056,0.16-0.111,0.25l-7.143,14.81l0.011,0.01
			l13.413-9.359c0.093-0.061,0.179-0.11,0.26-0.13c0.082-0.03,0.172-0.03,0.271,0.01c0.1,0.03,0.224,0.1,0.374,0.2
			c0.149,0.109,0.335,0.25,0.557,0.45c0.207,0.17,0.365,0.319,0.475,0.439c0.109,0.12,0.188,0.23,0.236,0.32
			c0.049,0.1,0.065,0.189,0.051,0.27c-0.015,0.08-0.046,0.181-0.094,0.28l-7.057,14.84l0.023,0.021l13.522-9.29
			c0.086-0.051,0.164-0.101,0.234-0.13c0.07-0.04,0.153-0.04,0.249-0.011c0.095,0.03,0.214,0.09,0.356,0.19
			c0.143,0.1,0.321,0.24,0.535,0.42c0.222,0.19,0.39,0.35,0.503,0.479c0.114,0.131,0.178,0.25,0.192,0.351
			c0.015,0.11-0.021,0.2-0.108,0.3c-0.086,0.09-0.221,0.21-0.405,0.34L44.237,132.23z"/>
	</g>
	<g>
		<defs>
			<polygon id="SVGID_3_" points="243.54,92.95 383.75,213.86 352.77,249.781 212.57,128.86 			"/>
		</defs>
		<clipPath id="SVGID_4_">
			<use xlink:href="#SVGID_3_"  overflow="visible"/>
		</clipPath>
		<path clip-path="url(#SVGID_4_)" d="M351.59,197.45c0.11-0.04,0.22-0.061,0.32-0.061c0.11,0,0.21,0.021,0.32,0.061
			c0.12,0.05,0.24,0.109,0.38,0.21c0.14,0.09,0.29,0.22,0.47,0.37c0.21,0.18,0.37,0.34,0.47,0.47c0.11,0.14,0.17,0.26,0.18,0.35
			c0.01,0.091-0.02,0.17-0.08,0.221c-0.06,0.06-0.15,0.09-0.26,0.109l-4.24,0.851c-0.12,0.029-0.23,0.04-0.32,0.04
			c-0.08,0-0.17-0.011-0.25-0.04c-0.09-0.021-0.18-0.08-0.29-0.15c-0.11-0.08-0.24-0.18-0.39-0.31c-0.16-0.141-0.28-0.261-0.36-0.36
			c-0.08-0.11-0.12-0.2-0.13-0.27c-0.01-0.07,0.02-0.131,0.08-0.181c0.06-0.05,0.16-0.09,0.28-0.13L351.59,197.45z M342.84,213.18
			c-0.11,0.13-0.21,0.23-0.29,0.32c-0.09,0.08-0.17,0.15-0.24,0.2c-0.08,0.04-0.15,0.08-0.21,0.109
			c-0.07,0.021-0.19,0.04-0.36,0.051c-0.18,0.02-0.43,0-0.77-0.061c-0.34-0.05-0.7-0.149-1.07-0.28c-0.37-0.13-0.74-0.3-1.12-0.52
			c-0.39-0.21-0.75-0.47-1.1-0.77c-0.72-0.62-1.25-1.28-1.6-2c-0.35-0.711-0.52-1.461-0.5-2.24c0.02-0.771,0.22-1.58,0.59-2.41
			c0.38-0.83,0.94-1.68,1.68-2.54c0.85-0.99,1.7-1.73,2.55-2.23c0.85-0.489,1.68-0.79,2.48-0.88c0.81-0.09,1.59,0,2.34,0.271
			c0.76,0.27,1.46,0.689,2.12,1.25c0.32,0.28,0.6,0.569,0.85,0.89s0.46,0.63,0.63,0.95c0.17,0.31,0.29,0.61,0.38,0.91
			c0.09,0.29,0.14,0.52,0.15,0.689c0.01,0.16,0.01,0.29,0,0.37c-0.01,0.08-0.03,0.16-0.07,0.25c-0.04,0.09-0.09,0.181-0.16,0.28
			c-0.07,0.09-0.16,0.21-0.28,0.34c-0.25,0.29-0.45,0.46-0.62,0.521c-0.17,0.06-0.3,0.04-0.39-0.04
			c-0.11-0.091-0.19-0.271-0.23-0.511c-0.04-0.25-0.1-0.54-0.2-0.88c-0.09-0.34-0.24-0.71-0.45-1.1s-0.53-0.771-0.96-1.14
			c-0.88-0.761-1.85-1.011-2.9-0.73c-1.05,0.27-2.13,1.05-3.24,2.33c-0.56,0.65-0.98,1.26-1.28,1.85c-0.3,0.59-0.47,1.15-0.51,1.681
			c-0.04,0.529,0.04,1.02,0.25,1.479c0.2,0.46,0.53,0.87,0.97,1.26c0.42,0.36,0.85,0.61,1.28,0.75c0.44,0.15,0.84,0.24,1.21,0.28
			s0.69,0.07,0.96,0.07c0.27,0.01,0.45,0.05,0.54,0.13c0.05,0.04,0.08,0.1,0.09,0.16c0.01,0.06,0,0.14-0.03,0.229
			c-0.04,0.09-0.1,0.2-0.18,0.311C343.07,212.9,342.97,213.03,342.84,213.18z M341.97,189.16c0.12-0.04,0.23-0.061,0.33-0.061
			c0.1,0,0.21,0.021,0.32,0.061c0.11,0.04,0.24,0.109,0.37,0.21c0.14,0.09,0.3,0.21,0.48,0.37c0.21,0.18,0.36,0.33,0.47,0.47
			s0.17,0.25,0.18,0.35c0.01,0.091-0.02,0.16-0.08,0.221c-0.06,0.06-0.15,0.09-0.27,0.109l-4.24,0.851
			c-0.12,0.02-0.22,0.04-0.31,0.04c-0.09,0-0.17-0.011-0.26-0.04c-0.08-0.03-0.18-0.08-0.29-0.15c-0.11-0.08-0.24-0.18-0.38-0.31
			c-0.17-0.141-0.29-0.261-0.36-0.36c-0.08-0.11-0.12-0.2-0.13-0.27c-0.01-0.07,0.02-0.131,0.08-0.181s0.15-0.1,0.27-0.13
			L341.97,189.16z M334.09,203.55c-0.44,0.51-0.92,0.88-1.46,1.12c-0.53,0.23-1.09,0.34-1.67,0.311
			c-0.59-0.021-1.18-0.171-1.78-0.45c-0.6-0.271-1.19-0.66-1.77-1.15c-0.35-0.31-0.67-0.63-0.94-0.96c-0.28-0.34-0.5-0.65-0.69-0.96
			c-0.18-0.3-0.32-0.58-0.41-0.83c-0.1-0.24-0.16-0.439-0.18-0.58c-0.02-0.14,0.01-0.3,0.09-0.46c0.08-0.17,0.22-0.37,0.42-0.59
			c0.12-0.15,0.23-0.26,0.32-0.34c0.1-0.08,0.19-0.15,0.26-0.19c0.07-0.04,0.14-0.05,0.2-0.04c0.07,0.011,0.13,0.03,0.18,0.08
			c0.08,0.07,0.16,0.221,0.23,0.46c0.07,0.24,0.17,0.511,0.3,0.83c0.13,0.32,0.32,0.67,0.55,1.04c0.23,0.38,0.55,0.74,0.97,1.101
			c0.31,0.27,0.62,0.479,0.93,0.63c0.31,0.149,0.61,0.239,0.9,0.27c0.3,0.03,0.59-0.01,0.86-0.13c0.27-0.11,0.52-0.3,0.76-0.58
			c0.24-0.28,0.37-0.58,0.4-0.89c0.02-0.32-0.03-0.66-0.14-1.01c-0.11-0.351-0.26-0.711-0.46-1.08c-0.19-0.37-0.39-0.75-0.6-1.15
			s-0.39-0.8-0.55-1.22s-0.26-0.84-0.3-1.28c-0.04-0.43,0-0.87,0.13-1.31c0.13-0.44,0.39-0.891,0.77-1.33
			c0.34-0.391,0.74-0.7,1.2-0.931c0.46-0.229,0.96-0.35,1.5-0.35c0.53-0.01,1.1,0.1,1.69,0.33c0.6,0.229,1.2,0.6,1.8,1.13
			c0.27,0.229,0.52,0.479,0.75,0.75c0.22,0.28,0.42,0.54,0.57,0.79c0.16,0.25,0.28,0.479,0.37,0.689c0.08,0.211,0.14,0.381,0.16,0.5
			c0.03,0.131,0.04,0.221,0.02,0.29c-0.01,0.07-0.03,0.131-0.07,0.2c-0.04,0.061-0.08,0.141-0.14,0.23
			c-0.06,0.09-0.14,0.2-0.24,0.319c-0.11,0.12-0.21,0.23-0.3,0.311c-0.09,0.08-0.18,0.14-0.25,0.18c-0.08,0.04-0.15,0.05-0.21,0.05
			c-0.06-0.01-0.11-0.029-0.15-0.069c-0.07-0.061-0.13-0.181-0.19-0.37c-0.05-0.19-0.14-0.42-0.26-0.68
			c-0.12-0.271-0.28-0.561-0.48-0.87c-0.2-0.32-0.47-0.62-0.82-0.92c-0.31-0.271-0.62-0.471-0.91-0.601
			c-0.3-0.14-0.58-0.21-0.84-0.21c-0.27,0-0.51,0.061-0.75,0.17c-0.23,0.11-0.43,0.271-0.61,0.47c-0.25,0.29-0.38,0.601-0.4,0.921
			c-0.03,0.319,0.02,0.659,0.13,1.01c0.11,0.359,0.26,0.72,0.46,1.1c0.2,0.38,0.41,0.771,0.61,1.17c0.21,0.391,0.4,0.8,0.57,1.221
			c0.18,0.42,0.28,0.84,0.33,1.27c0.05,0.43,0.01,0.86-0.12,1.29C334.71,202.69,334.46,203.12,334.09,203.55z M325.26,191.99
			c0.47-0.54,0.86-1.101,1.17-1.66c0.32-0.57,0.51-1.14,0.6-1.7c0.08-0.56,0.01-1.12-0.2-1.67c-0.22-0.55-0.62-1.08-1.21-1.59
			c-0.54-0.47-1.09-0.78-1.65-0.92c-0.56-0.15-1.12-0.15-1.67-0.021c-0.56,0.13-1.11,0.38-1.64,0.761
			c-0.54,0.369-1.06,0.85-1.55,1.42c-0.47,0.54-0.86,1.1-1.18,1.67c-0.31,0.569-0.5,1.13-0.58,1.689c-0.07,0.561,0,1.12,0.21,1.67
			c0.21,0.551,0.62,1.08,1.21,1.591c0.53,0.46,1.08,0.77,1.64,0.92c0.56,0.149,1.12,0.159,1.68,0.029c0.55-0.13,1.09-0.38,1.63-0.76
			C324.25,193.04,324.77,192.56,325.26,191.99z M327.27,193.5c-0.71,0.82-1.46,1.47-2.26,1.97c-0.81,0.5-1.64,0.811-2.49,0.94
			s-1.72,0.06-2.6-0.22c-0.87-0.271-1.74-0.771-2.58-1.5c-0.82-0.71-1.43-1.45-1.83-2.221c-0.4-0.77-0.6-1.56-0.61-2.38
			c0-0.81,0.18-1.64,0.56-2.479c0.37-0.841,0.92-1.681,1.65-2.521c0.7-0.81,1.45-1.47,2.25-1.97c0.8-0.5,1.63-0.82,2.48-0.95
			c0.86-0.13,1.72-0.05,2.59,0.22c0.87,0.28,1.73,0.78,2.58,1.511c0.82,0.71,1.43,1.449,1.83,2.22c0.4,0.77,0.61,1.56,0.61,2.38
			c0.01,0.82-0.18,1.65-0.55,2.49S327.99,192.67,327.27,193.5z M310.28,187.75c-0.05,0.06-0.11,0.09-0.18,0.11
			c-0.06,0.02-0.14,0.01-0.23-0.021c-0.09-0.03-0.2-0.08-0.34-0.17c-0.13-0.09-0.28-0.21-0.46-0.36c-0.18-0.159-0.33-0.3-0.43-0.42
			c-0.11-0.109-0.18-0.22-0.22-0.3c-0.05-0.09-0.06-0.17-0.06-0.229c0.01-0.07,0.04-0.13,0.09-0.19l5.04-5.85
			c0.49-0.57,0.84-1.061,1.05-1.49c0.21-0.42,0.34-0.83,0.39-1.23c0.05-0.399-0.01-0.779-0.16-1.149c-0.16-0.36-0.41-0.7-0.77-1
			c-0.46-0.4-1.06-0.63-1.8-0.7c-0.73-0.07-1.63-0.01-2.67,0.19l-6.02,6.97c-0.05,0.06-0.11,0.1-0.17,0.109
			c-0.07,0.021-0.15,0.011-0.24-0.01c-0.09-0.029-0.2-0.09-0.33-0.18c-0.13-0.08-0.29-0.21-0.48-0.37c-0.17-0.15-0.32-0.29-0.42-0.4
			c-0.11-0.119-0.18-0.22-0.23-0.31c-0.04-0.09-0.06-0.17-0.05-0.23c0.01-0.069,0.04-0.13,0.09-0.189l8.61-9.98
			c0.05-0.06,0.11-0.1,0.16-0.119c0.06-0.021,0.14-0.021,0.23,0c0.1,0.029,0.2,0.079,0.31,0.159c0.12,0.08,0.26,0.19,0.43,0.33
			c0.16,0.141,0.29,0.271,0.39,0.37c0.1,0.101,0.16,0.2,0.19,0.28c0.03,0.09,0.04,0.16,0.03,0.22c-0.01,0.07-0.04,0.13-0.09,0.19
			l-1.14,1.319c1.11-0.149,2.07-0.119,2.88,0.061c0.81,0.189,1.5,0.53,2.07,1.03c0.66,0.569,1.12,1.17,1.38,1.779
			c0.27,0.62,0.37,1.24,0.33,1.86c-0.05,0.62-0.22,1.229-0.54,1.85c-0.31,0.61-0.78,1.271-1.39,1.98L310.28,187.75z M298.32,177.43
			c-0.05,0.061-0.11,0.101-0.18,0.12c-0.06,0.01-0.14,0-0.23-0.02c-0.09-0.03-0.2-0.09-0.34-0.181c-0.13-0.08-0.28-0.21-0.47-0.369
			c-0.18-0.15-0.32-0.28-0.42-0.4c-0.11-0.12-0.18-0.22-0.23-0.311c-0.04-0.09-0.06-0.17-0.05-0.229c0.01-0.06,0.04-0.12,0.09-0.18
			l12.78-14.82c0.05-0.06,0.11-0.1,0.17-0.13c0.07-0.021,0.15-0.01,0.24,0.02c0.1,0.03,0.21,0.09,0.34,0.17
			c0.13,0.091,0.29,0.21,0.46,0.37c0.19,0.15,0.33,0.29,0.44,0.41s0.18,0.22,0.22,0.311c0.04,0.079,0.06,0.159,0.05,0.229
			c-0.01,0.07-0.04,0.14-0.09,0.19L298.32,177.43z M295.29,166.9l-1.56-1.351c-0.5-0.439-0.98-0.77-1.42-1.01
			c-0.44-0.23-0.86-0.37-1.25-0.41c-0.38-0.05-0.73,0-1.05,0.13c-0.32,0.141-0.6,0.36-0.87,0.66c-0.44,0.521-0.63,1.07-0.57,1.66
			c0.07,0.59,0.39,1.14,0.99,1.65c0.48,0.42,1.03,0.68,1.65,0.789c0.62,0.11,1.37,0.11,2.26-0.01L295.29,166.9z M293.18,173.02
			c-0.08,0.091-0.16,0.131-0.26,0.131c-0.1-0.011-0.21-0.051-0.33-0.11c-0.12-0.07-0.28-0.19-0.48-0.36
			c-0.2-0.17-0.34-0.31-0.44-0.43c-0.09-0.12-0.15-0.23-0.16-0.32c-0.01-0.09,0.02-0.18,0.1-0.27l0.86-0.99
			c-0.84,0.09-1.64,0.03-2.4-0.17c-0.76-0.21-1.44-0.57-2.04-1.08c-0.52-0.46-0.94-0.939-1.25-1.439c-0.3-0.5-0.49-1.011-0.57-1.53
			c-0.08-0.521-0.04-1.04,0.12-1.561c0.16-0.52,0.45-1.02,0.86-1.5c0.49-0.56,1.02-0.949,1.61-1.17c0.59-0.21,1.21-0.27,1.88-0.18
			c0.66,0.1,1.36,0.35,2.1,0.75c0.74,0.39,1.5,0.93,2.28,1.6l1.37,1.19l0.67-0.78c0.33-0.39,0.59-0.76,0.76-1.13
			c0.17-0.36,0.25-0.72,0.24-1.07c-0.01-0.359-0.12-0.71-0.32-1.06c-0.2-0.34-0.51-0.7-0.94-1.06c-0.45-0.391-0.9-0.69-1.35-0.891
			c-0.45-0.2-0.87-0.359-1.25-0.46c-0.38-0.1-0.71-0.18-0.98-0.229c-0.27-0.051-0.46-0.11-0.54-0.19c-0.06-0.05-0.1-0.11-0.12-0.17
			c-0.02-0.07-0.02-0.15,0-0.24c0.01-0.09,0.06-0.18,0.12-0.29c0.07-0.1,0.15-0.21,0.24-0.319c0.16-0.19,0.3-0.32,0.42-0.41
			c0.12-0.08,0.27-0.13,0.45-0.141c0.18-0.01,0.45,0.03,0.81,0.11c0.35,0.08,0.74,0.2,1.15,0.37s0.83,0.38,1.27,0.63
			c0.44,0.26,0.85,0.55,1.23,0.88c0.72,0.62,1.26,1.23,1.62,1.83c0.37,0.59,0.57,1.18,0.61,1.76c0.04,0.59-0.08,1.17-0.34,1.761
			c-0.26,0.579-0.66,1.189-1.19,1.81L293.18,173.02z M291.54,155.32c-0.14,0.17-0.26,0.3-0.36,0.41c-0.1,0.1-0.19,0.17-0.27,0.22
			c-0.08,0.04-0.15,0.069-0.21,0.069c-0.06,0.011-0.12-0.02-0.18-0.069s-0.12-0.13-0.17-0.24c-0.06-0.1-0.13-0.22-0.2-0.34
			c-0.08-0.13-0.18-0.271-0.28-0.41c-0.11-0.14-0.24-0.28-0.4-0.42c-0.18-0.16-0.4-0.28-0.64-0.35c-0.24-0.08-0.53-0.12-0.87-0.12
			c-0.35,0-0.75,0.05-1.2,0.14c-0.46,0.1-0.99,0.24-1.6,0.42l-5.67,6.57c-0.05,0.06-0.1,0.1-0.17,0.109
			c-0.06,0.021-0.14,0.011-0.23-0.02c-0.1-0.03-0.21-0.08-0.34-0.17s-0.29-0.21-0.47-0.37c-0.18-0.15-0.32-0.29-0.43-0.4
			c-0.1-0.119-0.18-0.229-0.22-0.319c-0.05-0.09-0.07-0.16-0.06-0.23c0.01-0.06,0.04-0.12,0.09-0.18l8.61-9.98
			c0.06-0.06,0.11-0.1,0.17-0.12c0.05-0.02,0.13-0.02,0.23,0c0.09,0.03,0.19,0.08,0.31,0.15c0.11,0.08,0.25,0.2,0.42,0.34
			c0.17,0.141,0.3,0.26,0.39,0.37c0.1,0.101,0.16,0.2,0.2,0.28c0.03,0.08,0.04,0.16,0.03,0.22c-0.01,0.061-0.04,0.12-0.09,0.18
			l-1.26,1.46c0.62-0.17,1.16-0.27,1.62-0.31c0.45-0.05,0.85-0.05,1.19-0.01s0.64,0.12,0.9,0.25c0.26,0.13,0.49,0.28,0.71,0.47
			c0.09,0.08,0.2,0.18,0.31,0.3c0.11,0.11,0.22,0.24,0.33,0.391c0.11,0.14,0.2,0.279,0.27,0.409c0.08,0.131,0.12,0.23,0.14,0.311
			c0.01,0.07,0.01,0.13-0.01,0.18c-0.01,0.04-0.03,0.101-0.07,0.16c-0.03,0.061-0.09,0.14-0.17,0.25
			C291.81,155.02,291.69,155.15,291.54,155.32z M275.91,156.84c-0.18,0.21-0.34,0.37-0.48,0.47c-0.14,0.101-0.26,0.15-0.37,0.16
			c-0.11,0.011-0.25-0.01-0.41-0.06c-0.17-0.05-0.34-0.13-0.52-0.22c-0.18-0.101-0.36-0.21-0.55-0.341
			c-0.19-0.119-0.37-0.26-0.54-0.399c-0.52-0.45-0.9-0.9-1.15-1.36c-0.26-0.45-0.38-0.92-0.38-1.399c0-0.48,0.13-0.98,0.39-1.5
			c0.26-0.521,0.64-1.07,1.14-1.641l5.03-5.84l-1.4-1.2c-0.11-0.1-0.14-0.24-0.11-0.41c0.04-0.18,0.17-0.399,0.4-0.659
			c0.12-0.141,0.23-0.25,0.33-0.33c0.1-0.091,0.2-0.141,0.28-0.181c0.08-0.04,0.16-0.05,0.23-0.029c0.07,0.01,0.14,0.05,0.2,0.1
			l1.38,1.19l2.05-2.37c0.04-0.051,0.1-0.09,0.16-0.11c0.07-0.02,0.15-0.02,0.25,0.01c0.1,0.021,0.21,0.08,0.34,0.17
			c0.13,0.08,0.29,0.2,0.47,0.36c0.18,0.16,0.33,0.3,0.43,0.41c0.11,0.12,0.18,0.22,0.22,0.31c0.03,0.09,0.05,0.17,0.04,0.24
			c-0.01,0.07-0.04,0.13-0.08,0.19l-2.05,2.369l2.57,2.211c0.05,0.05,0.1,0.109,0.12,0.17c0.02,0.069,0.02,0.149,0,0.239
			c-0.02,0.091-0.07,0.19-0.13,0.301c-0.07,0.109-0.17,0.229-0.29,0.369c-0.23,0.271-0.43,0.431-0.6,0.49
			c-0.16,0.061-0.3,0.05-0.42-0.05l-2.56-2.21l-4.8,5.57c-0.59,0.689-0.94,1.29-1.04,1.819c-0.1,0.53,0.11,1.021,0.64,1.471
			c0.17,0.149,0.33,0.26,0.5,0.34c0.16,0.08,0.31,0.149,0.44,0.2c0.14,0.06,0.26,0.1,0.36,0.13c0.1,0.029,0.18,0.069,0.24,0.12
			c0.04,0.029,0.07,0.069,0.08,0.119c0.02,0.051,0.02,0.101-0.01,0.171c-0.03,0.069-0.07,0.149-0.13,0.25
			C276.12,156.59,276.03,156.7,275.91,156.84z M266.74,150.2c-0.05,0.06-0.1,0.1-0.16,0.12c-0.07,0.02-0.14,0.01-0.23-0.011
			c-0.1-0.029-0.2-0.079-0.32-0.159c-0.12-0.08-0.26-0.19-0.41-0.32c-0.17-0.15-0.31-0.271-0.4-0.38c-0.1-0.11-0.16-0.2-0.2-0.29
			c-0.04-0.08-0.05-0.15-0.04-0.21c0.02-0.061,0.05-0.12,0.1-0.181l1.14-1.319c-1.11,0.14-2.07,0.109-2.87-0.08
			c-0.81-0.19-1.49-0.53-2.06-1.021c-0.67-0.58-1.13-1.17-1.4-1.779c-0.26-0.62-0.37-1.24-0.32-1.86c0.05-0.62,0.23-1.24,0.54-1.85
			c0.32-0.61,0.79-1.28,1.41-2.011l5.23-6.05c0.05-0.06,0.1-0.1,0.16-0.12c0.06-0.02,0.15-0.01,0.25,0.021
			c0.1,0.03,0.22,0.09,0.34,0.18c0.13,0.09,0.29,0.21,0.46,0.37c0.18,0.15,0.32,0.28,0.43,0.4c0.11,0.109,0.19,0.21,0.23,0.31
			c0.04,0.09,0.06,0.17,0.05,0.24c0,0.06-0.03,0.13-0.08,0.18l-5.02,5.82c-0.5,0.58-0.86,1.09-1.08,1.51
			c-0.22,0.43-0.35,0.84-0.39,1.23c-0.03,0.399,0.02,0.779,0.17,1.149s0.4,0.7,0.75,1.01c0.46,0.391,1.06,0.631,1.79,0.69
			c0.74,0.07,1.63,0.01,2.68-0.18l6.02-6.98c0.05-0.06,0.11-0.1,0.17-0.11c0.06-0.02,0.14-0.02,0.25,0.011
			c0.1,0.029,0.21,0.09,0.34,0.18c0.12,0.09,0.27,0.21,0.46,0.37c0.18,0.16,0.32,0.29,0.43,0.4c0.11,0.109,0.18,0.22,0.22,0.31
			s0.05,0.17,0.05,0.24c0,0.069-0.03,0.13-0.08,0.189L266.74,150.2z M258.77,132.92c0.85-0.95,1.28-1.89,1.3-2.82
			c0.03-0.939-0.41-1.79-1.29-2.55c-0.45-0.39-0.93-0.649-1.41-0.77c-0.49-0.13-0.97-0.15-1.45-0.07
			c-0.47,0.08-0.93,0.26-1.38,0.521c-0.45,0.27-0.86,0.59-1.22,0.989L258.77,132.92z M260.14,135.05
			c-0.25,0.29-0.5,0.431-0.75,0.431c-0.25-0.011-0.47-0.091-0.65-0.25l-6.58-5.671c-0.48,0.561-0.85,1.101-1.12,1.641
			s-0.42,1.08-0.43,1.63c-0.02,0.54,0.11,1.07,0.38,1.6c0.27,0.53,0.71,1.061,1.31,1.57c0.47,0.42,0.93,0.74,1.37,0.98
			c0.44,0.25,0.83,0.439,1.19,0.579c0.35,0.131,0.65,0.24,0.89,0.311s0.41,0.149,0.5,0.229c0.05,0.04,0.09,0.091,0.1,0.16
			c0.02,0.061,0.02,0.12,0,0.19c-0.02,0.069-0.07,0.16-0.14,0.26c-0.07,0.11-0.16,0.22-0.27,0.36c-0.09,0.09-0.16,0.17-0.23,0.239
			c-0.07,0.061-0.13,0.11-0.19,0.16s-0.12,0.08-0.18,0.101c-0.07,0.02-0.14,0.04-0.21,0.04c-0.08,0.01-0.26-0.03-0.54-0.11
			c-0.28-0.08-0.61-0.21-1.01-0.4c-0.39-0.18-0.83-0.42-1.31-0.71s-0.95-0.64-1.42-1.05c-0.83-0.7-1.45-1.439-1.87-2.2
			c-0.42-0.76-0.64-1.55-0.67-2.37c-0.04-0.81,0.13-1.649,0.51-2.52c0.37-0.86,0.94-1.74,1.72-2.65c0.74-0.85,1.52-1.529,2.33-2.02
			c0.81-0.5,1.63-0.8,2.46-0.92c0.83-0.11,1.65-0.04,2.46,0.21c0.81,0.26,1.59,0.7,2.32,1.33c0.78,0.68,1.34,1.38,1.67,2.1
			c0.34,0.73,0.5,1.46,0.49,2.19c-0.01,0.729-0.18,1.46-0.51,2.17c-0.33,0.72-0.77,1.399-1.34,2.05L260.14,135.05z M243.73,129.46
			c-0.13,0.15-0.26,0.26-0.4,0.32c-0.14,0.06-0.28,0.09-0.42,0.08c-0.14,0-0.27-0.03-0.39-0.08c-0.13-0.061-0.24-0.13-0.34-0.221
			l-0.63-0.54c-0.2-0.17-0.35-0.34-0.47-0.51c-0.11-0.17-0.19-0.37-0.23-0.59s-0.05-0.479-0.03-0.79c0.03-0.3,0.09-0.649,0.19-1.07
			l2.66-11.939c0.14-0.62,0.29-1.26,0.45-1.93c0.17-0.66,0.34-1.29,0.52-1.9l-0.03-0.021c-0.44,0.54-0.9,1.101-1.37,1.66
			c-0.47,0.561-0.94,1.11-1.41,1.66l-7.47,8.66c-0.05,0.05-0.11,0.09-0.18,0.11c-0.07,0.02-0.16,0.01-0.25-0.021
			c-0.1-0.04-0.22-0.1-0.35-0.189c-0.14-0.091-0.3-0.21-0.49-0.37s-0.33-0.3-0.44-0.431c-0.1-0.119-0.18-0.22-0.23-0.31
			c-0.05-0.09-0.06-0.17-0.05-0.24c0.01-0.08,0.03-0.14,0.08-0.189l11.42-13.25c0.26-0.29,0.52-0.431,0.8-0.41
			c0.27,0.02,0.51,0.109,0.71,0.28l0.94,0.81c0.22,0.19,0.39,0.37,0.51,0.54c0.11,0.16,0.19,0.34,0.24,0.52
			c0.04,0.19,0.06,0.41,0.04,0.66c-0.02,0.24-0.07,0.53-0.15,0.87l-2.07,9.2c-0.12,0.57-0.24,1.11-0.37,1.65
			c-0.12,0.529-0.24,1.05-0.37,1.56s-0.25,1.01-0.37,1.5c-0.13,0.5-0.25,0.99-0.38,1.49l0.01,0.01c0.49-0.6,1.01-1.21,1.55-1.85
			c0.54-0.641,1.06-1.25,1.57-1.83l6.71-7.79c0.05-0.051,0.1-0.08,0.17-0.101c0.07-0.02,0.16-0.01,0.26,0.021
			c0.1,0.029,0.22,0.09,0.36,0.18c0.13,0.09,0.29,0.22,0.49,0.39c0.17,0.141,0.31,0.28,0.43,0.4c0.11,0.12,0.18,0.23,0.23,0.33
			c0.04,0.09,0.05,0.17,0.05,0.24c-0.01,0.08-0.04,0.14-0.08,0.189L243.73,129.46z"/>
	</g>
	<g>
		<defs>
			<polygon id="SVGID_5_" points="1044.95,86.89 1137.13,166.38 1105.96,202.52 1013.79,123.02 			"/>
		</defs>
		<clipPath id="SVGID_6_">
			<use xlink:href="#SVGID_5_"  overflow="visible"/>
		</clipPath>
		<path clip-path="url(#SVGID_6_)" d="M1114.27,158c0.11-0.05,0.221-0.07,0.33-0.07c0.101,0,0.211,0.021,0.32,0.07
			c0.11,0.04,0.23,0.11,0.37,0.2c0.14,0.1,0.3,0.22,0.479,0.37c0.2,0.18,0.36,0.34,0.471,0.479c0.1,0.13,0.16,0.25,0.17,0.34
			c0.01,0.091-0.01,0.17-0.07,0.221c-0.07,0.06-0.15,0.1-0.27,0.109l-4.24,0.86c-0.12,0.02-0.23,0.03-0.311,0.03
			c-0.09,0.01-0.17-0.011-0.26-0.03c-0.08-0.03-0.18-0.08-0.29-0.16c-0.109-0.07-0.239-0.17-0.39-0.3
			c-0.16-0.14-0.28-0.271-0.36-0.37c-0.069-0.11-0.12-0.19-0.13-0.27c0-0.07,0.021-0.131,0.08-0.181c0.07-0.05,0.16-0.09,0.28-0.13
			L1114.27,158z M1105.52,173.72c-0.109,0.13-0.199,0.24-0.289,0.32c-0.091,0.09-0.17,0.15-0.24,0.2s-0.141,0.08-0.21,0.109
			c-0.07,0.03-0.19,0.04-0.36,0.061c-0.17,0.01-0.43-0.01-0.77-0.07c-0.34-0.05-0.69-0.14-1.061-0.28c-0.37-0.13-0.75-0.3-1.13-0.51
			c-0.38-0.22-0.75-0.479-1.1-0.77c-0.71-0.62-1.25-1.29-1.601-2.011c-0.35-0.71-0.52-1.46-0.5-2.229
			c0.021-0.78,0.221-1.58,0.59-2.41c0.381-0.84,0.94-1.68,1.69-2.55c0.84-0.98,1.69-1.72,2.54-2.22s1.68-0.801,2.49-0.891
			c0.8-0.09,1.58,0,2.34,0.271c0.75,0.27,1.46,0.689,2.12,1.26c0.31,0.27,0.6,0.57,0.85,0.88c0.24,0.32,0.45,0.64,0.62,0.95
			c0.17,0.31,0.3,0.62,0.38,0.91c0.09,0.3,0.14,0.529,0.15,0.689c0.02,0.17,0.02,0.29,0.01,0.37c-0.021,0.08-0.04,0.17-0.08,0.26
			c-0.04,0.08-0.09,0.181-0.16,0.271c-0.069,0.1-0.16,0.21-0.28,0.34c-0.239,0.29-0.449,0.47-0.619,0.521
			c-0.16,0.06-0.29,0.05-0.391-0.04c-0.109-0.091-0.189-0.261-0.22-0.511c-0.04-0.25-0.11-0.54-0.2-0.88
			c-0.1-0.34-0.25-0.7-0.46-1.1c-0.21-0.391-0.53-0.771-0.96-1.141c-0.88-0.76-1.84-1-2.9-0.729c-1.05,0.27-2.13,1.05-3.239,2.34
			c-0.561,0.64-0.98,1.26-1.28,1.851c-0.29,0.59-0.46,1.149-0.51,1.67c-0.04,0.529,0.04,1.029,0.25,1.479
			c0.199,0.46,0.529,0.88,0.97,1.26c0.43,0.36,0.851,0.62,1.29,0.761c0.43,0.14,0.83,0.229,1.2,0.27s0.689,0.07,0.96,0.08
			c0.27,0,0.45,0.05,0.54,0.12c0.05,0.05,0.08,0.1,0.09,0.16c0.021,0.06,0,0.14-0.03,0.229c-0.04,0.09-0.09,0.2-0.17,0.32
			C1105.75,173.44,1105.65,173.58,1105.52,173.72z M1104.65,149.71c0.119-0.05,0.229-0.07,0.33-0.07
			c0.109,0,0.209,0.021,0.319,0.061c0.11,0.05,0.24,0.12,0.38,0.21c0.141,0.09,0.29,0.22,0.471,0.37c0.21,0.18,0.369,0.34,0.47,0.47
			c0.11,0.14,0.17,0.26,0.18,0.35c0.011,0.091-0.02,0.17-0.08,0.221c-0.06,0.06-0.149,0.1-0.27,0.109l-4.23,0.851
			c-0.13,0.029-0.229,0.04-0.319,0.04c-0.08,0.01-0.17-0.011-0.25-0.04c-0.09-0.021-0.19-0.08-0.301-0.15
			c-0.109-0.08-0.229-0.18-0.38-0.3c-0.159-0.14-0.28-0.271-0.359-0.37c-0.08-0.11-0.12-0.2-0.13-0.27
			c-0.011-0.07,0.02-0.131,0.08-0.181c0.06-0.05,0.149-0.09,0.279-0.13L1104.65,149.71z M1096.77,164.09
			c-0.439,0.51-0.92,0.88-1.449,1.12c-0.54,0.24-1.101,0.34-1.681,0.32c-0.579-0.03-1.18-0.181-1.779-0.45
			c-0.601-0.28-1.19-0.66-1.771-1.16c-0.35-0.31-0.67-0.63-0.939-0.96c-0.271-0.33-0.5-0.65-0.681-0.96
			c-0.18-0.3-0.319-0.58-0.42-0.82c-0.1-0.25-0.16-0.439-0.17-0.59c-0.02-0.14,0.01-0.3,0.09-0.46c0.07-0.17,0.21-0.36,0.41-0.59
			c0.12-0.14,0.23-0.25,0.33-0.34c0.09-0.08,0.18-0.141,0.25-0.181c0.08-0.039,0.14-0.06,0.21-0.05c0.061,0.011,0.12,0.04,0.17,0.08
			c0.08,0.07,0.16,0.23,0.23,0.46c0.069,0.24,0.18,0.521,0.31,0.84c0.13,0.32,0.31,0.66,0.54,1.04c0.23,0.37,0.561,0.74,0.97,1.091
			c0.311,0.27,0.62,0.479,0.931,0.63c0.31,0.149,0.609,0.239,0.91,0.27c0.289,0.03,0.58-0.01,0.85-0.12
			c0.27-0.12,0.53-0.31,0.76-0.58c0.24-0.29,0.38-0.58,0.4-0.899c0.02-0.32-0.021-0.65-0.13-1c-0.11-0.36-0.271-0.721-0.46-1.09
			c-0.2-0.37-0.4-0.75-0.61-1.15c-0.2-0.39-0.39-0.8-0.55-1.22s-0.26-0.84-0.301-1.271c-0.039-0.439,0.011-0.87,0.141-1.319
			c0.13-0.44,0.38-0.881,0.76-1.33c0.34-0.391,0.74-0.7,1.2-0.931c0.46-0.22,0.96-0.34,1.5-0.35c0.53-0.01,1.1,0.1,1.7,0.33
			c0.59,0.229,1.189,0.609,1.8,1.13c0.26,0.229,0.51,0.479,0.74,0.76c0.229,0.271,0.42,0.53,0.58,0.78
			c0.149,0.25,0.27,0.479,0.359,0.689c0.08,0.21,0.141,0.381,0.17,0.5c0.021,0.131,0.03,0.23,0.021,0.29
			c-0.01,0.07-0.04,0.141-0.08,0.2c-0.03,0.07-0.08,0.141-0.141,0.24c-0.06,0.09-0.14,0.19-0.239,0.31
			c-0.11,0.131-0.21,0.23-0.3,0.311c-0.09,0.09-0.181,0.149-0.25,0.18c-0.08,0.04-0.15,0.05-0.211,0.05
			c-0.06-0.01-0.109-0.029-0.149-0.069c-0.07-0.061-0.13-0.181-0.19-0.37c-0.05-0.19-0.14-0.42-0.26-0.681
			c-0.12-0.27-0.279-0.55-0.479-0.869c-0.2-0.311-0.471-0.62-0.82-0.92c-0.31-0.271-0.61-0.471-0.91-0.601
			c-0.3-0.14-0.58-0.2-0.84-0.2c-0.26-0.01-0.51,0.051-0.74,0.16c-0.229,0.11-0.439,0.271-0.62,0.48
			c-0.24,0.279-0.38,0.59-0.399,0.91c-0.021,0.329,0.02,0.659,0.13,1.02c0.109,0.35,0.27,0.71,0.47,1.09s0.4,0.771,0.61,1.17
			c0.199,0.4,0.39,0.8,0.57,1.221c0.17,0.42,0.279,0.85,0.319,1.27c0.05,0.43,0.01,0.86-0.11,1.29
			C1097.39,163.23,1097.14,163.66,1096.77,164.09z M1087.95,152.53c0.46-0.54,0.85-1.09,1.17-1.66c0.31-0.57,0.51-1.13,0.59-1.69
			c0.08-0.569,0.01-1.12-0.2-1.68c-0.21-0.55-0.62-1.08-1.21-1.59c-0.54-0.47-1.09-0.771-1.649-0.92
			c-0.561-0.141-1.11-0.15-1.67-0.021c-0.561,0.13-1.101,0.391-1.641,0.761c-0.54,0.38-1.05,0.85-1.54,1.42
			c-0.479,0.55-0.87,1.1-1.18,1.67c-0.32,0.569-0.51,1.13-0.59,1.689c-0.07,0.57,0,1.12,0.21,1.67c0.22,0.561,0.62,1.09,1.21,1.59
			c0.54,0.471,1.08,0.771,1.649,0.921c0.561,0.149,1.11,0.159,1.67,0.029c0.551-0.13,1.101-0.38,1.631-0.76
			C1086.93,153.58,1087.45,153.11,1087.95,152.53z M1089.95,154.04c-0.7,0.82-1.46,1.47-2.261,1.97c-0.8,0.5-1.629,0.82-2.489,0.95
			c-0.851,0.12-1.71,0.05-2.59-0.22c-0.88-0.28-1.74-0.78-2.591-1.51c-0.819-0.7-1.43-1.44-1.83-2.211
			c-0.399-0.77-0.6-1.569-0.6-2.38c-0.01-0.819,0.18-1.649,0.55-2.479c0.38-0.84,0.931-1.68,1.65-2.53c0.7-0.81,1.46-1.47,2.26-1.97
			s1.62-0.82,2.48-0.95c0.85-0.12,1.71-0.05,2.58,0.22c0.87,0.28,1.739,0.78,2.59,1.521c0.819,0.7,1.43,1.439,1.83,2.21
			c0.399,0.77,0.6,1.57,0.6,2.38c0.01,0.82-0.17,1.65-0.54,2.49S1090.67,153.21,1089.95,154.04z M1072.96,148.29
			c-0.05,0.06-0.11,0.1-0.17,0.11c-0.07,0.02-0.15,0.01-0.24-0.021c-0.09-0.02-0.2-0.08-0.33-0.17s-0.29-0.21-0.47-0.36
			c-0.18-0.159-0.33-0.3-0.43-0.409c-0.11-0.12-0.181-0.221-0.221-0.311c-0.039-0.09-0.06-0.16-0.05-0.229
			c0-0.07,0.03-0.131,0.08-0.19l5.04-5.84c0.49-0.57,0.84-1.07,1.05-1.49c0.22-0.43,0.341-0.84,0.391-1.24
			c0.05-0.39-0.011-0.779-0.16-1.14c-0.16-0.37-0.41-0.7-0.771-1.01c-0.449-0.4-1.05-0.63-1.79-0.7c-0.739-0.07-1.63-0.01-2.68,0.19
			l-6.021,6.979c-0.05,0.05-0.109,0.09-0.17,0.11c-0.06,0.01-0.14,0.01-0.239-0.021c-0.091-0.03-0.2-0.09-0.33-0.17
			c-0.13-0.09-0.29-0.22-0.47-0.37c-0.181-0.16-0.32-0.29-0.431-0.41c-0.1-0.119-0.18-0.22-0.22-0.31
			c-0.05-0.09-0.07-0.17-0.061-0.23c0.011-0.06,0.041-0.119,0.091-0.18l8.609-9.99c0.05-0.06,0.11-0.1,0.17-0.12
			c0.05-0.02,0.13-0.02,0.221,0.011c0.1,0.02,0.2,0.069,0.319,0.149c0.11,0.08,0.25,0.19,0.42,0.34
			c0.16,0.141,0.29,0.261,0.391,0.36c0.1,0.11,0.16,0.2,0.189,0.28c0.04,0.09,0.051,0.16,0.04,0.229
			c-0.01,0.061-0.04,0.12-0.09,0.181l-1.14,1.319c1.1-0.14,2.06-0.12,2.87,0.07c0.81,0.19,1.5,0.53,2.069,1.021
			c0.66,0.569,1.131,1.17,1.391,1.789c0.26,0.61,0.369,1.23,0.319,1.851c-0.04,0.62-0.22,1.24-0.54,1.85
			c-0.31,0.61-0.779,1.271-1.39,1.98L1072.96,148.29z M1065.23,129.38c0.029-1.04-0.041-1.92-0.23-2.64
			c-0.18-0.721-0.52-1.3-1.03-1.73c-0.46-0.399-0.95-0.64-1.47-0.689c-0.52-0.061-1.03,0-1.55,0.189
			c-0.521,0.19-1.021,0.471-1.511,0.851c-0.479,0.38-0.93,0.8-1.34,1.279c-0.43,0.5-0.819,1.021-1.16,1.57
			c-0.329,0.55-0.569,1.09-0.699,1.63s-0.13,1.061-0.01,1.561c0.13,0.5,0.43,0.96,0.909,1.369c0.24,0.211,0.511,0.381,0.79,0.511
			c0.28,0.13,0.61,0.22,0.98,0.26c0.37,0.05,0.79,0.07,1.27,0.04c0.471-0.021,1.01-0.09,1.61-0.21L1065.23,129.38z M1061.02,137.99
			c-0.06,0.06-0.109,0.1-0.18,0.12c-0.06,0.02-0.14,0.02-0.22-0.011c-0.09-0.029-0.19-0.08-0.3-0.149c-0.12-0.08-0.25-0.181-0.4-0.3
			c-0.15-0.141-0.28-0.261-0.37-0.36c-0.09-0.11-0.16-0.2-0.2-0.28c-0.05-0.09-0.06-0.16-0.05-0.229c0-0.07,0.03-0.141,0.09-0.2
			l1.13-1.32c-1.01,0.12-1.939,0.09-2.779-0.08s-1.601-0.54-2.271-1.12c-0.729-0.63-1.229-1.31-1.51-2.05
			c-0.271-0.729-0.36-1.47-0.26-2.229c0.1-0.771,0.35-1.54,0.77-2.32c0.41-0.78,0.94-1.54,1.561-2.26c0.739-0.86,1.5-1.55,2.28-2.09
			c0.779-0.53,1.569-0.88,2.35-1.061c0.779-0.17,1.56-0.16,2.32,0.04c0.76,0.2,1.489,0.601,2.199,1.21c0.58,0.5,1,1.09,1.271,1.76
			c0.26,0.681,0.42,1.46,0.46,2.37l5.01-5.8c0.04-0.06,0.1-0.09,0.17-0.12c0.061-0.029,0.141-0.02,0.24,0.021s0.21,0.1,0.34,0.18
			s0.29,0.19,0.46,0.35c0.19,0.16,0.33,0.301,0.431,0.421c0.109,0.119,0.18,0.22,0.22,0.3c0.05,0.08,0.069,0.16,0.06,0.239
			c-0.01,0.08-0.04,0.141-0.08,0.19L1061.02,137.99z M1053.04,120.7c0.85-0.94,1.28-1.88,1.31-2.811c0.021-0.939-0.41-1.79-1.3-2.55
			c-0.45-0.39-0.92-0.649-1.41-0.78c-0.489-0.119-0.97-0.14-1.45-0.06c-0.47,0.08-0.93,0.25-1.379,0.52
			c-0.45,0.261-0.851,0.591-1.221,0.98L1053.04,120.7z M1054.41,122.83c-0.25,0.29-0.5,0.439-0.75,0.43
			c-0.25,0-0.471-0.08-0.65-0.24l-6.58-5.67c-0.479,0.551-0.85,1.101-1.119,1.641c-0.271,0.54-0.421,1.08-0.431,1.62
			s0.11,1.08,0.38,1.609c0.271,0.53,0.71,1.05,1.311,1.57c0.479,0.41,0.93,0.74,1.369,0.979c0.44,0.24,0.841,0.431,1.19,0.57
			c0.351,0.141,0.65,0.24,0.89,0.32c0.25,0.07,0.41,0.149,0.5,0.22c0.051,0.05,0.091,0.101,0.11,0.16c0.021,0.06,0.01,0.13-0.01,0.2
			c-0.021,0.069-0.07,0.16-0.14,0.26c-0.061,0.1-0.16,0.22-0.271,0.35c-0.08,0.101-0.16,0.181-0.229,0.24
			c-0.061,0.07-0.131,0.12-0.19,0.17c-0.06,0.04-0.12,0.08-0.18,0.101c-0.07,0.02-0.141,0.029-0.21,0.04
			c-0.08,0.01-0.261-0.03-0.53-0.11c-0.28-0.08-0.62-0.21-1.021-0.4c-0.39-0.18-0.83-0.42-1.3-0.71c-0.479-0.29-0.96-0.64-1.43-1.05
			c-0.82-0.71-1.44-1.439-1.86-2.2c-0.42-0.77-0.649-1.55-0.68-2.37c-0.03-0.81,0.14-1.649,0.51-2.52
			c0.37-0.86,0.95-1.75,1.721-2.65c0.739-0.859,1.52-1.529,2.329-2.029c0.811-0.49,1.63-0.79,2.46-0.91s1.65-0.05,2.461,0.21
			c0.819,0.25,1.59,0.7,2.319,1.33c0.78,0.67,1.34,1.37,1.681,2.1c0.329,0.73,0.489,1.46,0.479,2.19
			c-0.01,0.729-0.18,1.45-0.51,2.17s-0.771,1.399-1.33,2.05L1054.41,122.83z M1040.41,114.39c-0.49,0.57-1,1.051-1.51,1.431
			c-0.511,0.39-1.03,0.64-1.57,0.75c-0.54,0.12-1.09,0.09-1.66-0.08s-1.15-0.521-1.76-1.04c-0.21-0.181-0.4-0.38-0.57-0.59
			c-0.18-0.2-0.33-0.41-0.45-0.61s-0.22-0.39-0.29-0.56c-0.069-0.171-0.109-0.301-0.109-0.381c0-0.079,0-0.149,0.02-0.22
			c0.01-0.06,0.03-0.14,0.07-0.22c0.03-0.07,0.09-0.16,0.16-0.26c0.07-0.101,0.17-0.221,0.279-0.351
			c0.141-0.16,0.261-0.29,0.37-0.39c0.101-0.101,0.19-0.17,0.28-0.2c0.08-0.04,0.15-0.05,0.22-0.05c0.061,0.01,0.12,0.04,0.181,0.1
			c0.06,0.05,0.109,0.141,0.16,0.271c0.039,0.14,0.1,0.3,0.17,0.47c0.069,0.18,0.17,0.37,0.289,0.58c0.131,0.2,0.301,0.4,0.53,0.59
			c0.25,0.22,0.49,0.38,0.72,0.47c0.24,0.091,0.49,0.101,0.75,0.03c0.271-0.07,0.561-0.229,0.871-0.479
			c0.319-0.24,0.689-0.61,1.1-1.091l8.859-10.27c0.051-0.05,0.101-0.09,0.17-0.11c0.07-0.02,0.15-0.01,0.25,0.03
			c0.101,0.03,0.221,0.09,0.351,0.18c0.14,0.091,0.3,0.221,0.479,0.38c0.181,0.15,0.32,0.29,0.44,0.41
			c0.11,0.12,0.19,0.23,0.229,0.32c0.051,0.09,0.07,0.17,0.061,0.25c0,0.07-0.03,0.13-0.07,0.18L1040.41,114.39z"/>
	</g>
</g>
</svg>
