<?xml version="1.0" encoding="utf-8"?>
<!-- Generator: Adobe Illustrator 16.0.0, SVG Export Plug-In . SVG Version: 6.00 Build 0)  -->
<!DOCTYPE svg PUBLIC "-//W3C//DTD SVG 1.1//EN" "http://www.w3.org/Graphics/SVG/1.1/DTD/svg11.dtd">
<svg version="1.1" id="Layer_1" xmlns="http://www.w3.org/2000/svg" xmlns:xlink="http://www.w3.org/1999/xlink" x="0px" y="0px"
	 width="671.732px" height="177.204px" viewBox="0 0 671.732 177.204" enable-background="new 0 0 671.732 177.204"
	 xml:space="preserve">
<g>
	<g>
		<path fill="#2E3192" d="M145.035,43.486c-9.687-2.509-21.849-3.04-30.195,3.371c-9.951,7.644-5.446,19.236,2.518,26.212
			c3.666,3.21,9.763,6.649,10.402,11.962c0.797,6.627-8.083,9.93-12.743,12.07c-8.091,3.714-13.664,11.213-12.631,20.435
			c1.764,15.751,23.547,20.728,36.22,22.512c10.351,1.457,20.033,0.602,29.786-3.335c9.47-3.824,20.296-7.82,28.318-14.239
			c8.35-6.68,7.012-16.364,0.128-23.42c-3.292-3.375-7.591-6.235-11.811-8.294c-2.51-1.224-5.177-2.171-7.399-3.914
			c-3.168-2.486,0.851-8.047,1.979-10.8c4.884-11.917-0.208-21.543-10.096-28.715c-8.146-5.907-21.816-12.588-31.874-7.543
			c-2.883,1.446-0.35,5.759,2.523,4.317c5.719-2.869,14.593,0.51,19.805,3.11c6.482,3.233,14.132,8.716,16.352,15.918
			c3.234,10.49-11.833,21.238,0.3,29.074c7.487,4.835,27.184,11.525,19.376,23.8c-2.826,4.443-8.908,6.932-13.498,9.02
			c-5.572,2.534-11.177,5.145-16.851,7.436c-9.89,3.993-20.067,3.892-30.377,2.008c-8.1-1.48-16.909-3.958-23.265-9.437
			c-7.757-6.685-5.122-17.801,3.348-22.533c6.998-3.91,20.014-8.407,17.188-19.241c-2.682-10.282-15.452-13.11-18.432-23.286
			c-2.149-7.338,6.487-11.446,12.1-12.645c5.688-1.215,11.937-0.462,17.499,0.978C146.83,49.116,148.154,44.293,145.035,43.486
			L145.035,43.486z"/>
	</g>
</g>
<g>
	<g>
		<path fill="#BE1E2D" d="M415.527,126.094c-4.948-9.771-16.97-17.427-26.689-21.727c-10.9-4.822-22.893-4.678-33.411,0.909
			c-5.19,2.757-9.809,6.532-14.814,9.6c-7.069,4.332-15.025,5.634-23.205,5.579c-12.722-0.086-23.675-8.584-35.885-1.274
			c-7.97,4.771-14.842,15.193-8.905,24.035c5.271,7.849,17.334,9.302,25.891,10.168c6.607,0.669,13.311,0.587,19.915-0.045
			c7.24-0.694,14.19-3.35,21.474-3.439c6.46-0.079,12.006,3.232,17.792,5.585c6.537,2.658,13.284,4.124,20.269,4.994
			c11.599,1.446,23.174,0,34.794,0.149c5.864,0.076,11.975,1.023,17.808,0.377c2.637-0.292,5.68-1.622,7.047-4.043
			c3.056-5.41,0.077-11.877-4.663-15.255c-4.126-2.94-8.836-4.776-13.518-6.629c-2.792-1.105-5.662-2.038-7.896-4.114
			c-2.207-2.05-0.988-5.69-0.309-8.11c0.872-3.11-3.952-4.429-4.822-1.329c-1.124,4.007-1.743,7.955,0.532,11.661
			c2.798,4.555,9.64,6.091,14.246,7.941c4.996,2.007,12.55,5.03,12.742,11.407c0.188,6.185-15.807,3.238-19.297,3.135
			c-14.95-0.44-29.555,1.6-44.381-1.483c-12.164-2.53-22.331-10.819-35.264-8.943c-7.368,1.068-14.36,3.085-21.856,3.494
			c-6.629,0.362-13.38,0.006-19.936-1.039c-5.292-0.843-10.995-2.273-15.138-5.844c-6.535-5.633-0.209-13.808,4.888-17.61
			c6.067-4.525,12.545-3.526,19.375-1.551c6.868,1.985,13.117,3.015,20.3,2.649c6.233-0.316,12.257-1.914,17.854-4.642
			c5.764-2.809,10.767-7.085,16.239-10.395c9.684-5.856,20.859-5.492,31.018-0.998c8.519,3.769,19.189,10.822,23.487,19.31
			C412.666,131.495,416.979,128.963,415.527,126.094L415.527,126.094z"/>
	</g>
</g>
<g>
	<g>
		<path fill="#00A14B" d="M573.618,47.417c0.514-9.037-11.604-12.792-18.351-15.268c-13.712-5.032-28.903-6.677-43.366-8.072
			c-15.21-1.467-30.563-1.538-45.813-0.749c-8.686,0.45-18.019,0.806-26.212,4.024c-6.589,2.588-11.52,8.736-7.923,15.901
			c4.271,8.51,14.51,12.425,23.062,15.07c12.889,3.986,26.14,3.504,39.46,3.967c4.998,0.174,10.246,1.352,14.231,4.541
			c4.968,3.974,3.396,11.508-2.676,13.054c-8.034,2.046-17.937-0.979-21.831,8.732c-3.217,8.023,6.083,18.445,11.719,22.868
			c8.939,7.015,21.471,8.659,32.477,9.37c4.794,0.31,10.895,0.563,13.812,5.002c3.364,5.122-0.574,8.661-4.774,10.834
			c-4.955,2.564-14.935,7.653-11.263,14.983c3.104,6.198,12.422,7.226,18.506,7.969c12.54,1.532,23.564-1.28,34.24-7.662
			c9.539-5.702,16.21-12.858,12.081-24.438c-1.567-4.398-3.947-8.39-5.305-12.883c-1.202-3.98-2.311-7.905-4.163-11.644
			c-4.008-8.089-11.987-9.07-19.093-13.191c-5.731-3.324-0.371-8.813,2.373-12.095c2.899-3.466,5.717-7.164,8.178-10.954
			c2.15-3.313,3.325-7.246,2.964-11.187c-0.356-3.89-3.012-7.109-3.637-10.966c-0.516-3.177-5.333-1.824-4.822,1.329
			c1.038,6.397,5.244,10.201,1.954,16.949c-2.654,5.442-7.417,10.038-11.067,14.821c-2.36,3.094-5.064,7.497-3.052,11.48
			c2.217,4.386,6.637,6.159,10.966,7.939c6.776,2.786,10.417,6.016,12.869,13.142c2.189,6.362,4.471,12.358,7.014,18.588
			c3.079,7.542-0.364,12.237-6.309,16.524c-4.576,3.3-9.908,6.315-15.296,8.031c-9.161,2.918-23.742,2.841-32.386-2.331
			c-6.698-4.008,11.633-11.923,13.856-14.451c5.357-6.091,0.976-15.826-5.768-18.597c-4.131-1.698-8.597-1.982-13.008-2.267
			c-6.457-0.417-12.966-1.557-19.142-3.5c-6.18-1.944-11.211-5.778-15.081-10.894c-3.398-4.494-6.986-11.2-0.602-14.73
			c3.606-1.994,8.865-1.049,12.833-1.606c4.159-0.583,7.653-2.113,9.823-5.855c4.695-8.101-1.035-16.246-8.602-19.395
			c-12.123-5.044-26.409-1.941-39.181-3.767c-9.973-1.426-22.02-4.752-29.104-12.279c-8.803-9.351,6.977-13.227,13.484-14.215
			c12.57-1.909,25.663-1.841,38.34-1.647c15.5,0.237,31.022,1.779,46.281,4.505c7.197,1.286,14.481,3.088,21.228,5.948
			c3.765,1.596,11.36,4.037,11.074,9.071C568.436,50.639,573.437,50.622,573.618,47.417L573.618,47.417z"/>
	</g>
</g>
<path fill="none" stroke="#000000" stroke-width="2.8346" stroke-miterlimit="10" stroke-dasharray="14.1732,2.8346" d="
	M103.252,27.344C87.518,33.463,84.25,48.27,89.415,59.812c5.072,11.335,19.207,16.194,30.564,18.988
	c12.645,3.111,25.642,2.867,38.441,5.023c12.481,2.103,24.999,5.003,36.028,11.084c10.129,5.584,18.835,11.723,30.156,14.583
	c5.951,1.503,11.72,2.669,18.011,2.668c6.601-0.001,12.605-2.063,19.081-2.743c10.582-1.111,21.953-0.81,32.523-0.297
	c10.513,0.51,21.376,0.139,30.091,5.997c7.911,5.318,12.905,13.372,18.314,21.343c2.867,4.225,5.665,8.647,8.73,12.478
	c1.731,2.164,3.262,4.242,5.478,6.153c1.911,1.648,4.449,2.792,6.719,4.476c8.854,6.568,21.774,7.826,32.788,9.364
	c13.769,1.923,27.886,3.691,41.659,1.662c6.055-0.892,12.019-1.196,16.937-5.013c3.851-2.989,7.409-6.728,11.609-9.425
	c4.971-3.193,10.811-5.098,16.058-8.129c5.586-3.229,11.477-5.803,17.316-8.578c5.623-2.673,11.113-5.174,16.802-7.599
	c5.196-2.215,9.795-3.876,13.898-7.852c8.521-8.254,20.662-12.094,30.166-18.82c5.12-3.625,10.514-7.506,13.974-12.69
	c1.865-2.795,2.427-6.27,3.665-9.269c1.232-2.984,2.462-5.654,3.401-8.748c1.975-6.499,2.122-11.756-0.075-18.168
	c-2.102-6.133-3.198-12.508-4.923-18.889C572.549,21.581,556.12,17.668,542,14.346c-13.441-3.163-26.756-2.155-40.486-3.411
	c-36.262-3.318-74.568-1.558-109.423,8.271c-18.044,5.088-34.596,13.727-53.214,16.058c-17.309,2.168-34.727-1.456-51.673-3.113
	c-6.58-0.644-12.846-2.815-19.338-3.817c-7.217-1.114-14.227-2.577-21.063-4.626c-12.991-3.894-27.144-5.053-40.51-7.008
	c-13.351-1.953-27.498-3.631-41.178-3.631c-12.288,0-25.206-0.672-36.86,2.357c-5.775,1.501-11.563,3.437-16.422,6.678
	c-2.317,1.545-4.295,3.553-6.96,4.559"/>
<g>
</g>
<g>
</g>
<g>
</g>
<g>
</g>
<g>
</g>
<g>
</g>
</svg>
