<?xml version="1.0" encoding="utf-8"?>
<!-- Generator: Adobe Illustrator 16.0.0, SVG Export Plug-In . SVG Version: 6.00 Build 0)  -->
<!DOCTYPE svg PUBLIC "-//W3C//DTD SVG 1.1//EN" "http://www.w3.org/Graphics/SVG/1.1/DTD/svg11.dtd">
<svg version="1.1" id="Layer_1" xmlns="http://www.w3.org/2000/svg" xmlns:xlink="http://www.w3.org/1999/xlink" x="0px" y="0px"
	 width="671.732px" height="177.204px" viewBox="0 0 671.732 177.204" enable-background="new 0 0 671.732 177.204"
	 xml:space="preserve">
<g>
	<g>
		<path fill="#ED1C24" d="M167.46,133.783c3.224,0,3.224-5,0-5S164.236,133.783,167.46,133.783L167.46,133.783z"/>
	</g>
</g>
<g>
	<g>
		<path fill="#006838" d="M160.699,54.962c3.224,0,3.224-5,0-5S157.475,54.962,160.699,54.962L160.699,54.962z"/>
	</g>
</g>
<g>
	<g>
		<path fill="#2E3192" d="M217.275,90.893c3.224,0,3.224-5,0-5S214.051,90.893,217.275,90.893L217.275,90.893z"/>
	</g>
</g>
<g>
	<g>
		<path fill="#FFDE17" d="M83.281,90.893c3.224,0,3.224-5,0-5S80.057,90.893,83.281,90.893L83.281,90.893z"/>
	</g>
</g>
<g>
	<g>
		<path fill="#ED1C24" d="M528.095,144.509c3.225,0,3.225-5,0-5S524.87,144.509,528.095,144.509L528.095,144.509z"/>
	</g>
</g>
<g>
	<g>
		<path fill="#006838" d="M521.333,65.688c3.225,0,3.225-5,0-5S518.108,65.688,521.333,65.688L521.333,65.688z"/>
	</g>
</g>
<g>
	<g>
		<path fill="#2E3192" d="M577.909,101.618c3.225,0,3.225-5,0-5S574.685,101.618,577.909,101.618L577.909,101.618z"/>
	</g>
</g>
<g>
	<g>
		<path fill="#FFDE17" d="M443.915,101.618c3.225,0,3.225-5,0-5S440.69,101.618,443.915,101.618L443.915,101.618z"/>
	</g>
</g>
<g>
	<g>
		<path fill="none" stroke="#000000" stroke-width="2.8346" stroke-miterlimit="10" d="M149.938,34.134
			c2.296,0,4.678-0.085,7.085-0.157"/>
		<path fill="none" stroke="#000000" stroke-width="2.8346" stroke-miterlimit="10" stroke-dasharray="14.2839,2.8568" d="
			M159.878,33.903c5.046-0.099,10.099,0.023,14.607,1.25c7.272,1.979,13.939,5.29,20.264,9.466
			c13.004,8.585,26.008,14.249,32.947,28.885c3.268,6.894,6.155,15.259,5.958,23.079c-0.216,8.559-8.057,10.764-14.127,15.386
			c-5.995,4.564-10.52,11.68-16.192,17.084c-5.885,5.605-11.373,10.514-17.31,15.85c-13.901,12.496-31.436,14.237-49.313,10.611
			c-8.085-1.64-16.333-3.977-23.079-8.6c-5.984-4.099-8.101-11.526-13.879-15.84c-6.582-4.913-16.379-5.635-23.932-8.357
			c-6.409-2.309-12.33-6.144-16.756-11.2c-8.54-9.754-14.335-28.378-4.991-39.394c10.009-11.8,26.279-17.326,41.557-21.222
			c7.844-2,15.293-3.661,23.201-5.342c7.352-1.563,14.302-4.956,21.146-7.353c1.89-0.662,3.828-1.179,5.749-1.639"/>
		<path fill="none" stroke="#000000" stroke-width="2.8346" stroke-miterlimit="10" d="M147.123,36.241
			c2.387-0.547,4.725-1.041,6.888-1.654"/>
	</g>
</g>
<g>
	<g>
		<path fill="none" stroke="#000000" stroke-width="2.8346" stroke-miterlimit="10" d="M421.673,115.265
			c2.37,0.793,4.674,1.244,6.929,1.427"/>
		<path fill="none" stroke="#000000" stroke-width="2.8346" stroke-miterlimit="10" stroke-dasharray="14.315,5.726" d="
			M434.321,116.617c11.347-1.158,21.689-7.831,33.157-9.498c17.115-2.488,31.96,3.125,47.415,8.686
			c15.406,5.545,30.874,9.592,47.515,11.224c16.234,1.591,35.472,7.158,47.186-7.139c10.27-12.532,1.282-30.664-5.916-41.846
			c-8.219-12.77-19.349-24.548-32.242-32.355c-15.655-9.481-32.268-14.57-50.657-15.477c-19.048-0.938-39.477-2.195-57.575,2.828
			c-16.847,4.676-30.964,11.099-44.123,22.568c-11.019,9.604-19.57,21.308-13.697,37.03c1.864,4.991,5.921,12.302,10.696,17.571"/>
		<path fill="none" stroke="#000000" stroke-width="2.8346" stroke-miterlimit="10" d="M418.08,112.25
			c1.903,1.78,3.883,3.17,5.855,3.919"/>
	</g>
</g>
<g>
</g>
<g>
</g>
<g>
</g>
<g>
</g>
<g>
</g>
<g>
</g>
</svg>
