<?xml version="1.0" encoding="utf-8"?>
<!-- Generator: Adobe Illustrator 16.0.0, SVG Export Plug-In . SVG Version: 6.00 Build 0)  -->
<!DOCTYPE svg PUBLIC "-//W3C//DTD SVG 1.1//EN" "http://www.w3.org/Graphics/SVG/1.1/DTD/svg11.dtd">
<svg version="1.1" id="Layer_1" xmlns="http://www.w3.org/2000/svg" xmlns:xlink="http://www.w3.org/1999/xlink" x="0px" y="0px"
	 width="671.732px" height="177.204px" viewBox="0 0 671.732 177.204" enable-background="new 0 0 671.732 177.204"
	 xml:space="preserve">
<g>
	<g>
		<path d="M126.663,118.512c3.224,0,3.224-5,0-5S123.439,118.512,126.663,118.512L126.663,118.512z"/>
	</g>
</g>
<g>
	<g>
		<path d="M528.313,42.28c6.567-4.29,13.496-7.854,21.56-6.462c7.105,1.227,13.862,4.846,20.645,7.19
			c6.794,2.349,13.566,4.57,19.71,8.391c5.268,3.276,6.474,11.238,6.101,16.84c-0.842,12.607-19.434,10.683-28.229,12.87
			c-12.045,2.995-19.045,12.16-22.941,23.428c-4.047,11.703-6.765,23.657-15.265,33.153c-10.017,11.191-25.788,12.115-39.811,11.205
			c-14.584-0.946-28.287-3.22-42.817-0.326c-14.531,2.895-27.516,6.68-42.055,1.541c-11.389-4.026-22.23-11.462-29.447-21.198
			c-3.326-4.486-5.5-9.603-6.484-15.087c-1.383-7.697,1.546-15.391,3.855-22.593c2.136-6.663,2.884-13.317,3.231-20.275
			c0.338-6.763,0.017-14.595,4.535-20.161c4.294-5.289,13.119-4.045,18.486-1.378c4.508,2.239,6.838,6.15,8.098,10.758
			c2.98,10.909,3.714,32.055,18.276,33.931c7.972,1.027,14.824-5.945,17.876-12.482c4.016-8.601,4.382-18.483,6.343-27.646
			c1.313-6.129,3.805-12.208,9.438-15.535c5.728-3.383,13.55-1.148,19.478,0.399c5.839,1.524,11.563,3.288,17.584,3.953
			c9.553,1.056,19.444,1.276,29.053,1.652c3.226,0.126,3.213-4.874,0-5c-13.453-0.527-27.373-0.546-40.415-4.09
			c-8.438-2.292-18.787-5.915-27.24-1.72c-19,9.43-10.084,35.824-21.399,50.314c-2.522,3.23-6.595,5.357-10.717,5.155
			c-3.438-0.168-5.606-3.821-6.973-6.502c-3.464-6.793-4.341-14.884-6.093-22.222c-2.004-8.388-6.865-14.33-15.279-17.144
			c-10.099-3.378-19.747,0.677-23.76,10.36c-2.202,5.313-2.022,11.735-2.291,17.358c-0.4,8.369-2.056,15.812-4.599,23.753
			c-3.716,11.603-3.599,22.617,2.475,33.349c10.962,19.37,36.54,32.091,58.383,29.544c6.511-0.759,12.886-2.454,19.276-3.855
			c7.964-1.746,15.607-2.207,23.726-1.657c14.636,0.99,28.788,3.495,43.358,0.335c11.051-2.396,19.595-9.788,25.405-19.229
			c6.553-10.646,7.945-23.229,13.453-34.264c7.248-14.521,22.405-13.04,35.844-16.231c12.041-2.859,14.594-14.569,11.374-25.259
			c-3.991-13.253-19.895-16.293-31.311-20.338c-7.149-2.533-13.875-5.828-21.502-6.655c-7.643-0.829-15.33,3.512-21.458,7.515
			C523.103,39.718,525.605,44.049,528.313,42.28L528.313,42.28z"/>
	</g>
</g>
<g>
</g>
<g>
</g>
<g>
</g>
<g>
</g>
<g>
</g>
<g>
</g>
</svg>
