<?xml version="1.0" encoding="utf-8"?>
<!-- Generator: Adobe Illustrator 16.0.0, SVG Export Plug-In . SVG Version: 6.00 Build 0)  -->
<!DOCTYPE svg PUBLIC "-//W3C//DTD SVG 1.1//EN" "http://www.w3.org/Graphics/SVG/1.1/DTD/svg11.dtd">
<svg version="1.1" id="Layer_1" xmlns="http://www.w3.org/2000/svg" xmlns:xlink="http://www.w3.org/1999/xlink" x="0px" y="0px"
	 width="267px" height="216px" viewBox="0 0 267 216" enable-background="new 0 0 267 216" xml:space="preserve">
<path fill="#FFFFFF" d="M160.824,12.881h-9.104l3.36,10.091h-35.434l-3.361-10.091h-9.149l10.749,32.271H14.569v141.73h150.525
	l3.223,9.679h9.153l-3.225-9.679h35.426l3.225,9.679h9.113l-3.224-9.679h22.534V45.151h-69.746L160.824,12.881z M169.854,67.329
	h-35.433l-4.506-13.526h35.433L169.854,67.329z M157.961,31.623l4.506,13.528h-35.433l-4.506-13.528H157.961z M23.221,178.23V53.803
	h97.545l4.506,13.526h-57.02l2.882,8.653h57.02l34.058,102.249H23.221z M149.199,111.69l-4.506-13.529h35.43l4.506,13.529H149.199z
	 M187.511,120.342l4.506,13.527h-35.429l-4.507-13.527H187.511z M163.977,156.05l-4.506-13.528h35.427l4.506,13.528H163.977z
	 M171.365,178.23l-4.507-13.529h35.427l4.505,13.529H171.365z M232.669,178.23h-16.765l-34.06-102.249h50.824V178.23z
	 M232.669,53.803v13.526h-53.707l-4.506-13.526H232.669z M177.241,89.51h-35.431l-4.506-13.528h35.431L177.241,89.51z"/>
</svg>
